<svg width="34" height="34" viewBox="0 0 34 34" fill="none" xmlns="http://www.w3.org/2000/svg">
<g clip-path="url(#clip0_294_1400)">
<path d="M9.63335 32.433H25.0333M1.93335 6.03301V23.633C1.93335 24.2165 2.16513 24.7761 2.57771 25.1886C2.99029 25.6012 3.54987 25.833 4.13335 25.833H30.5333C31.1168 25.833 31.6764 25.6012 32.089 25.1886C32.5016 24.7761 32.7333 24.2165 32.7333 23.633V6.03301C32.7333 5.44953 32.5016 4.88995 32.089 4.47737C31.6764 4.06479 31.1168 3.83301 30.5333 3.83301H4.13335C3.54987 3.83301 2.99029 4.06479 2.57771 4.47737C2.16513 4.88995 1.93335 5.44953 1.93335 6.03301V6.03301Z" stroke="white" stroke-width="3.5" stroke-linecap="round" stroke-linejoin="round"/>
</g>
<defs>
<clipPath id="clip0_294_1400">
<rect width="33" height="33" fill="white" transform="translate(0.833344 0.533203)"/>
</clipPath>
</defs>
</svg>
