<svg width="77" height="84" viewBox="0 0 77 84" fill="none" xmlns="http://www.w3.org/2000/svg">
<path d="M38.135 0.424316C27.946 0.424316 20.1168 10.3823 20.1168 22.2441C20.1168 34.1053 27.9466 44.0638 38.135 44.0638C48.3246 44.0638 56.1532 34.1051 56.1532 22.2441C56.1532 10.383 48.3234 0.424316 38.135 0.424316ZM38.135 4.21871C45.8094 4.21871 52.3607 12.0313 52.3607 22.2437C52.3607 32.4565 45.8094 40.2687 38.135 40.2687C30.4607 40.2687 23.9093 32.4561 23.9093 22.2437C23.9093 12.031 30.4607 4.21871 38.135 4.21871ZM30.3707 45.9608C15.6065 47.8878 3.68727 54.5767 0.94286 64.1332L0.942197 64.1339C0.846243 64.4733 0.846243 64.8327 0.942197 65.1715C2.56812 70.8307 7.52132 75.4623 14.2195 78.7202C20.9178 81.9774 29.4801 83.9083 38.8176 83.9083C48.155 83.9083 56.7172 81.9774 63.4156 78.7202C70.1138 75.463 75.067 70.8309 76.6929 65.1715C76.7889 64.8327 76.7889 64.4733 76.6929 64.1339C73.948 54.5769 62.0286 47.888 47.2651 45.9615H47.2644C46.6424 45.8814 46.0217 46.115 45.6054 46.5842L38.8186 54.3519L32.0318 46.5842C31.6155 46.115 30.9942 45.8814 30.3721 45.9615L30.3707 45.9608ZM29.8671 49.9035L37.3946 58.4711L37.3939 58.4717C37.7539 58.8807 38.2721 59.1143 38.8167 59.1143C39.3613 59.1143 39.8794 58.8807 40.2394 58.4717L47.7669 49.9041C60.7789 51.843 70.4489 57.9544 72.78 64.6387C71.4068 68.641 67.5807 72.4784 61.7552 75.3114C55.6798 78.266 47.6322 80.1145 38.8174 80.1145C30.0026 80.1145 21.954 78.2662 15.8796 75.3114C10.0542 72.4784 6.22791 68.641 4.85486 64.6387C7.18557 57.9544 16.8557 51.8432 29.8679 49.9041L29.8671 49.9035ZM50.0199 55.4477L50.0192 55.4483C49.0411 55.5403 48.296 56.3635 48.3001 57.3455V60.1917H45.4552C44.4076 60.1917 43.5587 61.0414 43.5587 62.0889V67.7814C43.5587 68.8289 44.4077 69.6786 45.4552 69.6786H48.3001V72.5248C48.3001 73.5724 49.1491 74.422 50.1966 74.422H55.887C56.9345 74.422 57.7835 73.5723 57.7835 72.5248V69.6786H60.6284C61.6759 69.6786 62.5256 68.8289 62.5256 67.7814V62.0889C62.5256 61.0414 61.6759 60.1917 60.6284 60.1917H57.7835V57.3455C57.7835 56.298 56.9345 55.4483 55.887 55.4483H50.1966C50.1377 55.4457 50.0781 55.4457 50.0192 55.4483L50.0199 55.4477ZM52.0944 59.2421H53.991V62.0883L53.9903 62.0889C53.9903 63.1365 54.8393 63.9861 55.8868 63.9861H58.7317V65.8833H55.8868C54.8393 65.884 53.9903 66.733 53.9903 67.7812V70.6274H52.0938V67.7812C52.0931 66.733 51.2441 65.884 50.1966 65.8833H47.3517V63.9861H50.1966C51.2441 63.9861 52.0931 63.1365 52.0938 62.0889V59.2427L52.0944 59.2421Z" fill="#03434B"/>
</svg>
