<svg width="98" height="99" viewBox="0 0 98 99" fill="none" xmlns="http://www.w3.org/2000/svg">
<path d="M14.2165 45.5453C14.1997 46.0359 14.2669 46.5264 14.4011 47.0005C14.5521 47.4093 14.7366 47.8017 14.938 48.1778C15.0051 48.2922 15.0554 48.423 15.0554 48.5538C15.0386 48.75 14.9212 48.9463 14.7366 49.0444L13.6796 49.7311C13.5454 49.8128 13.3944 49.8782 13.2434 49.8782C13.0588 49.8619 12.8743 49.7801 12.7401 49.6493C12.5219 49.4204 12.3038 49.1588 12.1361 48.8809C11.9683 48.6029 11.8005 48.2922 11.6159 47.9162C10.3073 49.4204 8.66302 50.1725 6.68322 50.1725C5.27387 50.1725 4.14975 49.7801 3.32763 48.9953C2.50551 48.2105 2.08606 47.164 2.08606 45.856C2.08606 44.4662 2.5894 43.338 3.61285 42.4878C4.63631 41.6376 5.99532 41.2125 7.72345 41.2125C8.31068 41.2125 8.91468 41.2615 9.50191 41.3433C10.1227 41.425 10.7603 41.5558 11.4314 41.703V40.5094C11.4314 39.2667 11.1629 38.4002 10.6428 37.8933C10.1227 37.3864 9.19991 37.1412 7.90801 37.1412C7.304 37.1412 6.68322 37.2066 6.09599 37.3537C5.47521 37.5009 4.8712 37.6807 4.28397 37.9097C4.09941 37.9914 3.89808 38.0568 3.69674 38.1222C3.61285 38.1549 3.51219 38.1713 3.4283 38.1713C3.1934 38.1713 3.07596 38.0078 3.07596 37.6644V36.8632C3.05918 36.667 3.10951 36.4708 3.1934 36.291C3.32763 36.1438 3.47863 36.0293 3.66319 35.9476C4.3343 35.6206 5.03898 35.3753 5.77721 35.2118C6.63288 34.9993 7.52211 34.9012 8.39457 34.9012C10.3911 34.9012 11.8508 35.3426 12.7904 36.2256C13.73 37.1085 14.183 38.4492 14.183 40.2478V45.5453H14.2165ZM7.40467 48.0306C7.9919 48.0306 8.57913 47.9325 9.1328 47.7363C9.75358 47.5238 10.2905 47.164 10.7267 46.6899C10.9952 46.3956 11.1965 46.0359 11.2972 45.6434C11.4146 45.1856 11.4649 44.6951 11.4649 44.221V43.5342C10.9616 43.4198 10.4415 43.3217 9.92136 43.2563C9.40124 43.1909 8.86435 43.1582 8.34423 43.1582C7.22011 43.1582 6.39799 43.3707 5.84432 43.8122C5.29065 44.2537 5.0222 44.875 5.0222 45.6925C5.0222 46.461 5.22354 47.0332 5.64298 47.4257C6.06243 47.8181 6.63288 48.0306 7.40467 48.0306ZM20.8774 49.7965C20.6592 49.8128 20.4244 49.7638 20.2398 49.633C20.072 49.4531 19.9378 49.2406 19.8875 48.9953L15.9446 36.3564C15.8608 36.1438 15.8104 35.9312 15.7936 35.7023C15.7769 35.5061 15.9111 35.3263 16.1124 35.2936H17.8573C18.1761 35.2936 18.3942 35.3426 18.5117 35.4571C18.6291 35.5715 18.7466 35.7841 18.8472 36.0947L21.6491 46.9188L24.2665 36.0947C24.3504 35.7677 24.4511 35.5552 24.5853 35.4571C24.7866 35.3426 25.0215 35.2772 25.2564 35.2936H26.5986C26.9174 35.2936 27.1355 35.3426 27.2698 35.4571C27.4375 35.6369 27.555 35.8495 27.5885 36.0947L30.2395 47.0496L33.142 36.0947C33.1924 35.8495 33.3098 35.6369 33.4776 35.4571C33.6789 35.3426 33.8971 35.2772 34.1319 35.2936H35.6923C35.8936 35.2609 36.0782 35.408 36.1117 35.6042V35.7023C36.1117 35.7841 36.095 35.8822 36.0782 35.9639C36.0446 36.1111 36.0111 36.2419 35.9607 36.3727L31.9173 49.0117C31.8166 49.3387 31.6991 49.5512 31.5649 49.6493C31.3804 49.7638 31.1455 49.8292 30.9274 49.8128H29.4845C29.1657 49.8128 28.9476 49.7638 28.8133 49.6493C28.6456 49.4695 28.5281 49.2406 28.4946 48.9953L25.894 38.4492L23.3102 48.979C23.2766 49.2242 23.1592 49.4531 22.9914 49.633C22.79 49.7638 22.5552 49.8128 22.3203 49.7965H20.8774ZM42.437 50.2379C41.5646 50.2379 40.6921 50.1398 39.8532 49.9436C39.0143 49.7474 38.36 49.5349 37.9238 49.2896C37.7056 49.1915 37.5211 49.028 37.4036 48.8318C37.3365 48.6846 37.303 48.5375 37.303 48.374V47.5401C37.303 47.1967 37.4372 47.0332 37.6889 47.0332C37.7895 47.0332 37.8902 47.0496 37.9909 47.0823C38.0915 47.115 38.2425 47.1804 38.4103 47.2458C38.9975 47.5074 39.6183 47.6873 40.2559 47.8181C40.9102 47.9489 41.5814 48.0143 42.2525 48.0143C43.3095 48.0143 44.1316 47.8344 44.702 47.4747C45.2557 47.1477 45.5913 46.5591 45.5745 45.9214C45.5913 45.4963 45.4235 45.0875 45.1215 44.7769C44.8195 44.4662 44.249 44.1883 43.4269 43.9266L40.9941 43.1909C39.7693 42.8148 38.8633 42.2589 38.3097 41.5231C37.7728 40.8364 37.4708 40.0189 37.4708 39.1523C37.454 38.5146 37.605 37.8933 37.9238 37.3374C38.2258 36.8142 38.6284 36.3564 39.1318 35.9966C39.6519 35.6042 40.2391 35.3263 40.8767 35.1464C41.5646 34.9502 42.2692 34.8521 42.9907 34.8685C43.3598 34.8685 43.7457 34.8848 44.1148 34.9339C44.5007 34.9829 44.8531 35.0483 45.2054 35.1137C45.5577 35.1791 45.8597 35.2772 46.1617 35.3753C46.4134 35.4571 46.6483 35.5552 46.8664 35.6696C47.0677 35.7677 47.2355 35.8985 47.3697 36.0784C47.4872 36.2419 47.5375 36.4218 47.5207 36.618V37.3864C47.5207 37.7298 47.3865 37.9097 47.1349 37.9097C46.9167 37.877 46.6986 37.8116 46.4973 37.7134C45.4906 37.272 44.3833 37.0594 43.2759 37.0758C42.3196 37.0758 41.5646 37.2229 41.0445 37.5336C40.5243 37.8443 40.2559 38.3184 40.2559 38.9888C40.2391 39.4303 40.4237 39.8554 40.7592 40.1497C41.0948 40.4603 41.7156 40.771 42.6048 41.049L44.9873 41.7847C46.1953 42.1608 47.0677 42.684 47.5879 43.3544C48.108 44.0084 48.3764 44.8259 48.3596 45.6434C48.3764 46.2975 48.2254 46.9515 47.9234 47.5401C47.6214 48.096 47.202 48.5865 46.6986 48.979C46.145 49.4041 45.5074 49.7147 44.8363 49.8946C44.0645 50.1235 43.2591 50.2379 42.437 50.2379Z" fill="#7E838C"/>
<path d="M45.6078 58.1844C40.0879 62.1576 32.068 64.2668 25.1723 64.2668C15.5082 64.2668 6.80044 60.7841 0.223485 54.996C-0.296631 54.5382 0.173151 53.9169 0.793935 54.2766C7.90779 58.2988 16.6827 60.7351 25.7595 60.7351C32.3029 60.7024 38.7792 59.4107 44.8025 56.9418C45.7253 56.533 46.5138 57.5304 45.6078 58.1844Z" fill="#FF9900"/>
<path d="M47.9064 55.6335C47.2017 54.7506 43.2421 55.2084 41.4469 55.421C40.91 55.4864 40.8261 55.0286 41.3127 54.6852C44.4669 52.5269 49.6513 53.1483 50.2553 53.8677C50.8593 54.5871 50.0875 59.6558 47.1346 62.0756C46.6816 62.4517 46.2454 62.2555 46.4467 61.765C47.1178 60.1463 48.6111 56.5001 47.9064 55.6335Z" fill="#FF9900"/>
<path d="M77.2845 53.2465C77.4523 53.5735 77.7039 53.8515 78.0059 54.0641C78.3247 54.2766 78.6771 54.4401 79.063 54.5219C79.4656 54.62 79.8851 54.669 80.3045 54.669C80.6233 54.669 80.9253 54.6363 81.2441 54.6036C81.5629 54.5546 81.8817 54.4728 82.1837 54.3257C82.4689 54.1949 82.7206 53.9986 82.9051 53.7697C83.1064 53.5081 83.2071 53.1975 83.1903 52.8705C83.2071 52.5108 83.0561 52.1674 82.8044 51.9221C82.5192 51.6605 82.1669 51.4643 81.7978 51.3172C81.3448 51.1373 80.875 51.0065 80.3884 50.892C79.8683 50.7776 79.3314 50.6304 78.7945 50.4833C78.2408 50.3525 77.7039 50.189 77.167 49.9928C76.6637 49.8129 76.1772 49.5513 75.7577 49.2243C75.3383 48.9136 75.0027 48.5212 74.751 48.0634C74.4826 47.5402 74.3484 46.9679 74.3651 46.3793C74.3484 45.7089 74.5161 45.0386 74.8685 44.4499C75.1873 43.9104 75.6235 43.4362 76.1436 43.0765C76.6805 42.7004 77.2845 42.4388 77.9221 42.259C78.5764 42.0791 79.2475 41.9974 79.9186 41.9974C80.6736 41.9974 81.4119 42.0791 82.1501 42.2426C82.838 42.3898 83.4756 42.6677 84.046 43.0602C84.5997 43.4362 85.0527 43.9267 85.3715 44.499C85.707 45.153 85.8748 45.8888 85.858 46.6246H82.7038C82.687 46.2485 82.5863 45.8888 82.4186 45.5618C82.2675 45.2838 82.0494 45.0549 81.781 44.8914C81.4958 44.7279 81.1938 44.6135 80.875 44.548C80.5059 44.4826 80.1367 44.4499 79.7676 44.4499C79.4992 44.4499 79.2307 44.4826 78.9791 44.5317C78.7274 44.5807 78.4757 44.6789 78.2576 44.8097C78.0395 44.9405 77.8717 45.1203 77.7375 45.3165C77.5865 45.5454 77.5194 45.807 77.5362 46.085C77.5194 46.3303 77.5865 46.5592 77.7039 46.7717C77.8717 47.0006 78.0898 47.1641 78.3583 47.2622C78.7945 47.4421 79.2475 47.5892 79.7005 47.7037C80.271 47.8509 81.026 48.0471 81.9488 48.276C82.2172 48.325 82.6031 48.4231 83.1064 48.5703C83.6266 48.7174 84.1131 48.9463 84.5661 49.2406C85.0695 49.5677 85.5057 49.9764 85.8245 50.4669C86.1768 50.9902 86.3614 51.6442 86.3614 52.4617C86.3614 53.0994 86.2271 53.7207 85.9587 54.3093C85.6902 54.8816 85.2876 55.3884 84.7842 55.7809C84.2138 56.2223 83.5594 56.5493 82.8548 56.7455C81.9823 56.9908 81.0931 57.1052 80.1871 57.0889C79.3817 57.0889 78.5932 56.9908 77.8046 56.7946C77.0664 56.6147 76.3785 56.3041 75.7745 55.8626C75.1873 55.4375 74.7007 54.8979 74.3651 54.2603C73.996 53.5408 73.8282 52.756 73.8618 51.9548H77.016C76.9993 52.429 77.0999 52.8541 77.2845 53.2465ZM92.586 48.3577C92.9383 48.3414 93.2739 48.2596 93.5927 48.1288C93.8947 48.0144 94.1631 47.8182 94.3644 47.5729C94.5826 47.2949 94.6832 46.9516 94.6665 46.6082C94.6665 46.0032 94.4651 45.5291 94.0457 45.2184C93.643 44.8914 93.1397 44.7279 92.6195 44.7279C91.8645 44.7279 91.3109 44.9732 90.925 45.4473C90.5223 45.9705 90.3377 46.6082 90.3713 47.2622H87.5694C87.5862 46.5755 87.7204 45.9051 87.972 45.2675C88.2069 44.6952 88.5425 44.1556 88.9955 43.7142C89.4485 43.2727 89.9686 42.9293 90.5559 42.7168C91.2102 42.4715 91.8981 42.3571 92.586 42.3571C93.1732 42.3571 93.7604 42.4388 94.3309 42.6023C94.9013 42.7658 95.4215 43.0274 95.8912 43.3545C96.3442 43.6815 96.7301 44.1066 97.0154 44.5807C97.3174 45.0876 97.4684 45.6762 97.4516 46.2649C97.4684 46.9025 97.2838 47.5402 96.9482 48.0798C96.5959 48.6193 96.059 48.9954 95.4215 49.1589V49.2079C96.1597 49.3551 96.8308 49.7475 97.3006 50.3361C97.7704 50.9411 98.0053 51.6769 97.9885 52.4126C98.0053 53.0994 97.8543 53.7861 97.5523 54.3911C97.267 54.9633 96.8644 55.4538 96.361 55.8463C95.8409 56.2387 95.2705 56.5493 94.6329 56.7292C93.9786 56.9254 93.2907 57.0398 92.6028 57.0398C91.8478 57.0562 91.0927 56.9254 90.3713 56.6965C89.7337 56.4839 89.1465 56.1406 88.6599 55.6991C88.1734 55.2413 87.8043 54.7017 87.5694 54.0804C87.3009 53.3773 87.1835 52.6416 87.2003 51.8894H90.0022C90.019 52.2491 90.0693 52.6252 90.1867 52.9686C90.2874 53.2956 90.4552 53.5899 90.6733 53.8678C90.8914 54.1131 91.1431 54.3257 91.4451 54.4565C91.7974 54.62 92.1665 54.6854 92.5524 54.6854C93.1732 54.7017 93.7772 54.4892 94.2302 54.0968C94.6832 53.7043 94.9181 53.1484 94.9181 52.4617C94.9181 51.9221 94.8174 51.5134 94.5993 51.2354C94.398 50.9575 94.1128 50.7449 93.7772 50.6141C93.4249 50.4833 93.0558 50.4179 92.6867 50.4015C92.284 50.3852 91.9149 50.3688 91.5625 50.3688V48.3577C91.8981 48.3904 92.2504 48.3904 92.586 48.3577ZM62.9897 35.1792H64.1641V63.9561H62.9897V35.1792Z" fill="#7E838C"/>
</svg>
