<svg width="95" height="95" viewBox="0 0 95 95" fill="none" xmlns="http://www.w3.org/2000/svg">
<g clip-path="url(#clip0_294_1821)">
<path fill-rule="evenodd" clip-rule="evenodd" d="M14.4788 72.0967V66.082C14.4788 65.2916 14.9762 64.6568 15.8 64.6568H16.028C16.8515 64.6568 17.3466 65.2924 17.3466 66.082V78.7449C17.3466 81.8328 15.8107 84.2899 13.1342 85.8551C11.9081 86.5767 10.5086 86.9558 9.08348 86.9524H8.51464C5.40508 86.9524 2.93468 85.4258 1.35621 82.7691C0.628787 81.5514 0.24714 80.1608 0.251843 78.7449V78.1806C0.251843 75.0916 1.78849 72.636 4.46281 71.0678C5.68866 70.3448 7.08898 69.9656 8.51464 69.9705H9.08348C11.1879 69.9705 12.9732 70.7807 14.4788 72.0967ZM3.11936 78.4622C3.11936 80.6928 4.20782 82.3699 6.17562 83.4396C6.97133 83.8719 7.83514 84.1042 8.74299 84.1042C10.9473 84.1042 12.5824 83.0713 13.7101 81.216C14.2345 80.3528 14.4788 79.4084 14.4788 78.4045C14.4788 76.4709 13.5572 74.9619 11.9884 73.841C11.0372 73.1617 9.96653 72.8209 8.79887 72.8209C6.3962 72.8209 4.66711 74.0267 3.62935 76.1684C3.27924 76.8925 3.11936 77.6612 3.11936 78.4622ZM27.2956 69.9705H27.6931C31.0158 69.9705 33.5429 71.5714 35.1443 74.4524C35.7845 75.6048 36.1272 76.8628 36.1272 78.1806V78.7449C36.1272 81.8328 34.5943 84.2932 31.9137 85.8555C30.6727 86.5786 29.3019 86.9524 27.8637 86.9524H27.2956C24.1861 86.9524 21.7149 85.4258 20.1372 82.7691C19.4094 81.5515 19.0274 80.1609 19.0317 78.7449V78.1806C19.0317 75.0913 20.5746 72.6437 23.2423 71.0686C24.4825 70.3366 25.8544 69.9705 27.2956 69.9705ZM21.8996 78.4622C21.8996 80.6274 22.9692 82.2203 24.8104 83.3403C25.6749 83.866 26.6272 84.1042 27.6372 84.1042C29.7912 84.1042 31.3833 83.0194 32.4914 81.2137C33.0199 80.3528 33.259 79.407 33.259 78.4045C33.259 76.3911 32.2827 74.8531 30.6135 73.7385C29.699 73.1271 28.6809 72.8209 27.5795 72.8209C25.1768 72.8209 23.4477 74.0267 22.4103 76.1684C22.0595 76.8925 21.8996 77.6612 21.8996 78.4622ZM48.0492 73.0485C47.6162 72.847 46.8057 72.7801 46.3379 72.7625C43.9419 72.6728 42.2083 74.0131 41.1913 76.1125C40.8401 76.8367 40.6798 77.6031 40.6798 78.4045C40.6798 80.8443 41.9696 82.5526 44.1621 83.594C44.963 83.9741 45.997 84.0462 46.8723 84.0462C47.6421 84.0462 48.7302 83.5778 49.4134 83.2554L49.5318 83.1996H50.0622L50.1206 83.2113C50.7727 83.3462 51.265 83.7568 51.265 84.4538V84.7358C51.265 86.4701 48.074 86.8672 46.8564 86.9517C42.5595 87.2469 39.346 84.903 38.121 80.8322C37.9082 80.1253 37.8123 79.4231 37.8123 78.6865V78.1229C37.8123 75.0339 39.3556 72.5871 42.0229 71.0134C43.2631 70.2819 44.6347 69.9143 46.0755 69.9143H46.6439C48.1724 69.9143 49.5803 70.3455 50.8423 71.2016L50.9459 71.2729L51.0115 71.3803C51.1476 71.6045 51.265 71.864 51.265 72.1309V72.4129C51.265 73.14 50.7172 73.5311 50.0562 73.6576L50.0015 73.6672H49.832C49.4041 73.6672 48.4311 73.2271 48.0492 73.0485ZM57.3512 74.9773C58.4652 73.8693 59.5829 72.7636 60.7136 71.674C61.0285 71.37 62.2213 70.0834 62.691 70.0834H63.2047L63.2632 70.0955C63.9175 70.2304 64.4075 70.6418 64.4075 71.3402V71.6218C64.4075 72.0982 63.8457 72.6518 63.5359 72.9779C62.8772 73.6716 62.1836 74.3425 61.5093 75.0218L58.0444 78.5155C59.5363 80.0006 61.0267 81.4869 62.5063 82.9834C62.9167 83.3965 63.3239 83.8126 63.728 84.2318C63.8705 84.3807 64.0807 84.5659 64.2002 84.7722C64.3287 84.9655 64.4075 85.1835 64.4075 85.4162V85.7103L64.3908 85.7783C64.2299 86.4282 63.8146 86.9524 63.0896 86.9524H62.8612C62.3868 86.9524 61.8509 86.4194 61.5259 86.1147C60.856 85.4875 60.2095 84.828 59.5529 84.1873L57.3512 82.0405V85.4717C57.3512 86.2621 56.8531 86.8973 56.0303 86.8973H55.8046C54.9808 86.8973 54.4833 86.2621 54.4833 85.4717V66.1371C54.4833 65.3468 54.9811 64.7145 55.8046 64.7145H56.0303C56.8531 64.7145 57.3512 65.3468 57.3512 66.1371V74.9773ZM93.0941 70.0834H93.3791C94.2392 70.0834 94.8132 70.659 94.8132 71.5086C94.8132 72.6879 93.6781 72.9897 92.6963 72.9897C91.4083 72.9897 90.1785 73.7642 89.2906 74.6329C88.1837 75.7169 87.6992 77.1054 87.6992 78.6317V85.5276C87.6992 86.318 87.2022 86.9524 86.378 86.9524H86.1515C85.3273 86.9524 84.8306 86.3183 84.8306 85.5276V78.2358C84.8306 75.4357 86.2029 73.1499 88.4909 71.5468C89.8569 70.5892 91.4217 70.0837 93.0941 70.0837V70.0834ZM72.7114 83.7495C73.7551 84.1116 74.9449 84.0598 76.0156 83.8745C76.5634 83.6432 77.9638 83.0363 78.479 83.1253L78.5593 83.1389L78.6333 83.1749C78.9479 83.3264 79.248 83.5407 79.4087 83.8587C79.7839 84.6038 79.6037 85.353 78.8665 85.7761L78.6211 85.9169C75.9009 87.4763 73.0075 87.2601 70.2958 85.8037C68.9993 85.1074 68.0074 84.0741 67.2758 82.8143L67.1048 82.5199C65.3583 79.5158 65.594 76.3558 67.5637 73.4992C68.2436 72.5118 69.1322 71.749 70.171 71.1524L70.5641 70.927C73.1259 69.4581 75.8716 69.5588 78.5027 70.848C79.9175 71.5413 81.0637 72.5746 81.8535 73.9337L81.9956 74.1785C82.5693 75.1659 81.8261 76.0261 81.0589 76.6143C80.1685 77.2965 79.2695 78.1178 78.4161 78.8493C76.513 80.4811 74.6129 82.1166 72.7114 83.7495ZM70.2484 82.0313C72.3764 80.219 74.5052 78.4049 76.6277 76.5848C77.3531 75.9636 78.1485 75.3188 78.868 74.6656C78.2906 73.9429 77.3261 73.422 76.5067 73.1113C74.8524 72.4853 73.2214 72.6956 71.7043 73.5653C69.7188 74.7042 68.8731 76.5176 68.9471 78.7743C68.9767 79.6632 69.2173 80.5197 69.6921 81.2759C69.8594 81.5424 70.0463 81.7927 70.2484 82.0313ZM54.7716 24.9505H63.2343V33.5433H67.513C69.4893 33.5433 71.5215 33.1937 73.3927 32.564C74.3124 32.2541 75.3443 31.8233 76.2514 31.2811C75.0567 29.732 74.4468 27.7759 74.2676 25.8479C74.0234 23.225 74.5563 19.8114 76.3431 17.7587L77.2329 16.7367L78.2928 17.5833C80.9616 19.7129 83.2062 22.689 83.6019 26.0816C86.8154 25.1428 90.5886 25.3648 93.4209 26.9885L94.583 27.6546L93.9716 28.8405C91.576 33.4841 86.5675 34.9229 81.6711 34.6682C74.3442 52.7945 58.3927 61.3759 39.0518 61.3759C29.0591 61.3759 19.8918 57.6656 14.6712 48.86L14.5857 48.7166L13.8252 47.1793C12.0605 43.3033 11.4743 39.057 11.8718 34.8141L11.9913 33.5433H19.2282V24.9505H27.6905V16.5448H44.6162V8.13916H54.7716V24.9505Z" fill="#364548"/>
<path fill-rule="evenodd" clip-rule="evenodd" d="M82.189 28.1298C82.7564 23.7494 79.4562 20.3089 77.4096 18.6753C75.0509 21.3838 74.6845 28.4823 78.3848 31.4709C76.3196 33.2928 71.9684 34.9441 67.5128 34.9441H13.2769C12.8438 39.5638 13.6603 43.8181 15.5252 47.4592L16.1422 48.5804C16.5328 49.2385 16.9597 49.8747 17.4208 50.4861C19.6507 50.6284 21.7066 50.6772 23.5874 50.6361H23.5881C27.2843 50.5552 30.3002 50.1214 32.586 49.3347C32.7475 49.2848 32.9223 49.2993 33.0734 49.3751C33.2244 49.4509 33.3399 49.582 33.3953 49.7409C33.4508 49.8997 33.4418 50.0737 33.3704 50.2261C33.299 50.3785 33.1707 50.4973 33.0127 50.5574C32.7085 50.6625 32.3917 50.7603 32.0645 50.8533H32.0634C30.2636 51.3639 28.3335 51.7073 25.8435 51.8598C25.9916 51.8624 25.6896 51.8819 25.6888 51.8819C25.6041 51.8874 25.4975 51.8995 25.4124 51.9039C24.4323 51.9587 23.3746 51.9701 22.2932 51.9701C21.1103 51.9701 19.9456 51.9481 18.6433 51.8819L18.61 51.9039C23.1289 56.949 30.1948 59.9747 39.0519 59.9747C57.7966 59.9747 73.696 51.7212 80.7367 33.1921C85.7316 33.7012 90.5321 32.4359 92.7157 28.2018C89.2375 26.2083 84.7645 26.8439 82.189 28.1298Z" fill="#22A0C8"/>
<path fill-rule="evenodd" clip-rule="evenodd" d="M82.1894 28.1298C82.7568 23.7494 79.4566 20.3089 77.41 18.6753C75.0513 21.3838 74.6849 28.4823 78.3852 31.4709C76.32 33.2928 71.9688 34.9441 67.5132 34.9441H16.4889C16.2676 42.019 18.9109 47.3894 23.5874 50.6361H23.5885C27.2847 50.5552 30.3006 50.1214 32.5863 49.3347C32.7479 49.2848 32.9227 49.2993 33.0738 49.3751C33.2248 49.4509 33.3403 49.582 33.3957 49.7409C33.4511 49.8997 33.4422 50.0737 33.3708 50.2261C33.2994 50.3785 33.1711 50.4973 33.0131 50.5574C32.7088 50.6625 32.392 50.7603 32.0649 50.8533H32.0638C30.264 51.3639 28.1681 51.7514 25.6781 51.9039C25.6774 51.9039 25.6178 51.847 25.617 51.847C31.9964 55.0973 41.2462 55.0856 51.8514 51.0393C63.7426 46.5016 74.8082 37.857 82.5288 27.9695C82.4126 28.0217 82.2993 28.075 82.1894 28.1298Z" fill="#37B1D9"/>
<path fill-rule="evenodd" clip-rule="evenodd" d="M13.3788 40.5566C13.7156 43.0314 14.4447 45.3484 15.5254 47.4588L16.1424 48.58C16.5329 49.2381 16.9598 49.8743 17.4211 50.4857C19.6513 50.6279 21.7071 50.6768 23.5884 50.6357C27.2845 50.5548 30.3004 50.121 32.5862 49.3343C32.7478 49.2844 32.9226 49.2989 33.0736 49.3747C33.2247 49.4505 33.3401 49.5816 33.3955 49.7404C33.451 49.8993 33.442 50.0733 33.3706 50.2257C33.2992 50.378 33.1709 50.4969 33.0129 50.557C32.7087 50.6621 32.3919 50.7599 32.0647 50.8529H32.0636C30.2638 51.3635 28.179 51.7289 25.689 51.8819C25.6035 51.887 25.4544 51.8881 25.3682 51.8929C24.3889 51.9473 23.3419 51.9807 22.2601 51.9807C21.0776 51.9807 19.8681 51.9583 18.5665 51.8925C23.0854 56.9375 30.195 59.9743 39.0521 59.9743C55.0996 59.9743 69.0611 53.9243 77.1644 40.5566H13.3788Z" fill="#1B81A5"/>
<path fill-rule="evenodd" clip-rule="evenodd" d="M16.977 40.5566C17.9363 44.9017 20.2416 48.3128 23.5884 50.6357C27.2846 50.5548 30.3005 50.121 32.5863 49.3343C32.7478 49.2844 32.9226 49.2989 33.0737 49.3747C33.2247 49.4505 33.3402 49.5816 33.3956 49.7404C33.4511 49.8993 33.4421 50.0733 33.3707 50.2257C33.2993 50.378 33.171 50.4969 33.013 50.557C32.7088 50.6621 32.392 50.7599 32.0648 50.8529H32.0637C30.2639 51.3635 28.1351 51.7289 25.6447 51.8819C32.0237 55.1315 41.2469 55.0848 51.8513 51.0389C58.2666 48.5907 64.4409 44.9462 69.9802 40.5566H16.977Z" fill="#1D91B4"/>
<path fill-rule="evenodd" clip-rule="evenodd" d="M20.6383 26.3515H27.9729V33.6367H20.6383V26.3515ZM21.2494 26.9588H21.8282V33.0298H21.2494V26.9588ZM22.3375 26.9588H22.9396V33.0298H22.3378V26.9588H22.3375ZM23.4485 26.9588H24.0506V33.0298H23.4485V26.9588ZM24.5603 26.9588H25.162V33.0298H24.5603V26.9588ZM25.6717 26.9588H26.2734V33.0298H25.6717V26.9588ZM26.7827 26.9588H27.3619V33.0298H26.7827V26.9588ZM29.101 17.9458H36.4359V25.2307H29.1006V17.9458H29.101ZM29.7124 18.5531H30.2909V24.6237H29.7124V18.5531ZM30.8005 18.5531H31.4023V24.6237H30.8008V18.5531H30.8005ZM31.9115 18.5531H32.5133V24.6237H31.9115V18.5531ZM33.0229 18.5531H33.6247V24.6237H33.0229V18.5531ZM34.1343 18.5531H34.7365V24.6237H34.1343V18.5531ZM35.2453 18.5531H35.8249V24.6237H35.2453V18.5531Z" fill="#23A3C2"/>
<path fill-rule="evenodd" clip-rule="evenodd" d="M29.101 26.3516H36.436V33.6368H29.1006V26.3516H29.101ZM29.7124 26.9588H30.2909V33.0299H29.7124V26.9588ZM30.8005 26.9588H31.4023V33.0299H30.8009V26.9588H30.8005ZM31.9115 26.9588H32.5133V33.0299H31.9115V26.9588ZM33.0229 26.9588H33.6247V33.0299H33.0229V26.9588ZM34.1343 26.9588H34.7365V33.0299H34.1343V26.9588ZM35.2454 26.9588H35.8249V33.0299H35.2454V26.9588Z" fill="#34BBDE"/>
<path fill-rule="evenodd" clip-rule="evenodd" d="M37.5638 26.3516H44.8983V33.6368H37.5638V26.3516ZM38.1748 26.9588H38.7532V33.0299H38.1748V26.9588ZM39.2629 26.9588H39.8646V33.0299H39.2629V26.9588ZM40.3743 26.9588H40.9761V33.0299H40.3743V26.9588ZM41.4857 26.9588H42.0875V33.0299H41.4857V26.9588ZM42.5967 26.9588H43.1992V33.0299H42.5967V26.9588ZM43.7081 26.9588H44.2869V33.0299H43.7081V26.9588Z" fill="#23A3C2"/>
<path fill-rule="evenodd" clip-rule="evenodd" d="M37.5638 17.9458H44.8983V25.2307H37.5638V17.9458ZM38.1748 18.5531H38.7532V24.6237H38.1748V18.5531ZM39.2629 18.5531H39.8646V24.6237H39.2629V18.5531ZM40.3743 18.5531H40.9761V24.6237H40.3743V18.5531ZM41.4857 18.5531H42.0875V24.6237H41.4857V18.5531ZM42.5967 18.5531H43.1992V24.6237H42.5967V18.5531ZM43.7081 18.5531H44.2869V24.6237H43.7081V18.5531ZM46.0264 26.3515H53.361V33.6367H46.0264V26.3515ZM46.6378 26.9588H47.2163V33.0298H46.6378V26.9588ZM47.7259 26.9588H48.3277V33.0298H47.7259V26.9588ZM48.8369 26.9588H49.4387V33.0298H48.8369V26.9588ZM49.9483 26.9588H50.5505V33.0298H49.9483V26.9588ZM51.0597 26.9588H51.6619V33.0298H51.0597V26.9588ZM52.1711 26.9588H52.75V33.0298H52.1711V26.9588Z" fill="#34BBDE"/>
<path fill-rule="evenodd" clip-rule="evenodd" d="M46.0269 17.9458H53.3614V25.2307H46.0269V17.9458ZM46.6383 18.5531H47.2167V24.6237H46.6383V18.5531ZM47.7263 18.5531H48.3281V24.6237H47.7263V18.5531ZM48.8374 18.5531H49.4392V24.6237H48.8374V18.5531ZM49.9488 18.5531H50.5509V24.6237H49.9488V18.5531ZM51.0602 18.5531H51.6623V24.6237H51.0602V18.5531ZM52.1716 18.5531H52.7504V24.6237H52.1716V18.5531Z" fill="#23A3C2"/>
<path fill-rule="evenodd" clip-rule="evenodd" d="M46.0269 9.53955H53.3614V16.8255H46.0269V9.53955ZM46.6383 10.1465H47.2167V16.2179H46.6383V10.1461V10.1465ZM47.7263 10.1465H48.3281V16.2179H47.7263V10.1461V10.1465ZM48.8374 10.1465H49.4392V16.2179H48.8374V10.1461V10.1465ZM49.9488 10.1465H50.5509V16.2179H49.9488V10.1461V10.1465ZM51.0602 10.1465H51.6623V16.2179H51.0602V10.1461V10.1465ZM52.1716 10.1465H52.7504V16.2179H52.1716V10.1461V10.1465Z" fill="#34BBDE"/>
<path fill-rule="evenodd" clip-rule="evenodd" d="M54.4892 26.3516H61.8238V33.6368H54.4892V26.3516ZM55.0998 26.9588H55.679V33.0299H55.1002V26.9588H55.0998ZM56.1879 26.9588H56.7901V33.0299H56.1883V26.9588H56.1879ZM57.2997 26.9588H57.9018V33.0299H57.2997V26.9588ZM58.4107 26.9588H59.0129V33.0299H58.4107V26.9588ZM59.5225 26.9588H60.1243V33.0299H59.5225V26.9588ZM60.6335 26.9588H61.2124V33.0299H60.6335V26.9588Z" fill="#23A3C2"/>
<path fill-rule="evenodd" clip-rule="evenodd" d="M35.9769 45.4484C36.245 45.4449 36.511 45.4942 36.7597 45.5937C37.0084 45.6931 37.2347 45.8406 37.4254 46.0277C37.6162 46.2147 37.7677 46.4375 37.8711 46.6832C37.9745 46.9288 38.0277 47.1924 38.0276 47.4587C38.0276 47.7249 37.9743 47.9885 37.8708 48.2341C37.7673 48.4798 37.6158 48.7025 37.4249 48.8895C37.2341 49.0764 37.0077 49.2239 36.759 49.3232C36.5103 49.4226 36.2442 49.4718 35.9762 49.4682C35.4443 49.461 34.9366 49.246 34.563 48.8697C34.1895 48.4935 33.9801 47.9863 33.9802 47.4579C33.9803 46.9295 34.1899 46.4224 34.5636 46.0464C34.9372 45.6703 35.445 45.4555 35.9769 45.4484Z" fill="#D3ECEC"/>
<path fill-rule="evenodd" clip-rule="evenodd" d="M35.9766 46.0184C36.1617 46.0184 36.3382 46.053 36.5011 46.1158C36.3887 46.1806 36.3009 46.2804 36.2514 46.3997C36.2018 46.519 36.1931 46.6512 36.2267 46.7758C36.2603 46.9005 36.3343 47.0107 36.4373 47.0894C36.5403 47.1681 36.6665 47.211 36.7964 47.2113C37.0203 47.2113 37.2146 47.0882 37.3153 46.9058C37.4345 47.191 37.4582 47.5067 37.3828 47.8063C37.3075 48.1059 37.1372 48.3735 36.897 48.5695C36.6568 48.7656 36.3595 48.8797 36.049 48.895C35.7385 48.9103 35.4313 48.8261 35.1727 48.6547C34.9142 48.4832 34.7179 48.2338 34.6131 47.9431C34.5082 47.6524 34.5002 47.3359 34.5904 47.0404C34.6805 46.7449 34.8639 46.486 35.1135 46.3019C35.3632 46.1179 35.6658 46.0185 35.9766 46.0184ZM0.186737 41.2833H94.3125C92.2633 40.7672 87.8284 40.0695 88.5597 37.4014C84.8328 41.6847 75.8458 40.4065 73.5774 38.2947C71.0519 41.9332 56.3479 40.5499 55.3224 37.7153C52.1558 41.4064 42.3442 41.4064 39.1776 37.7153C38.1513 40.5499 23.4477 41.9332 20.9218 38.2943C18.6539 40.4065 9.66715 41.6847 5.94027 37.4017C6.67159 40.0695 2.23671 40.7672 0.186737 41.2837" fill="#364548"/>
<path fill-rule="evenodd" clip-rule="evenodd" d="M41.3551 59.9312C36.344 57.5693 33.5938 54.3583 32.0634 50.8535C30.2019 51.381 27.9646 51.7185 25.3647 51.8633C24.3854 51.9177 23.3551 51.9457 22.2744 51.9457C21.0279 51.9457 19.7144 51.9089 18.3354 51.8365C22.9309 56.3985 28.5842 59.9106 39.052 59.9746C39.8248 59.9746 40.5916 59.9599 41.3551 59.9312Z" fill="#BDD9D7"/>
<path fill-rule="evenodd" clip-rule="evenodd" d="M33.925 54.0875C33.2318 53.1527 32.5593 51.9778 32.0649 50.8525C30.2033 51.3808 27.9653 51.7183 25.365 51.8635C27.1511 52.8262 29.7052 53.7184 33.9254 54.0875" fill="#D3ECEC"/>
</g>
<defs>
<clipPath id="clip0_294_1821">
<rect width="94.6265" height="94.6265" fill="white" transform="translate(0.186737 0.253662)"/>
</clipPath>
</defs>
</svg>
