<svg width="43" height="43" viewBox="0 0 43 43" fill="none" xmlns="http://www.w3.org/2000/svg">
<path d="M11.9571 29.4182H29.9571C30.7821 29.4182 31.4571 30.1325 31.4571 31.0055C31.4571 31.8785 30.7821 32.5928 29.9571 32.5928H11.9571C11.1321 32.5928 10.4571 31.8785 10.4571 31.0055C10.4571 30.1325 11.1321 29.4182 11.9571 29.4182ZM19.4721 22.9102C18.908 23.4994 18.1465 23.8284 17.354 23.8255C16.5614 23.8225 15.8022 23.4877 15.2421 22.8944L11.9571 19.4182C11.1321 18.5452 11.1471 17.1325 12.0021 16.2912C12.8121 15.4658 14.1021 15.4975 14.8821 16.3229L17.3571 18.942L27.0021 8.73563C27.8121 7.87849 29.1171 7.87849 29.9271 8.73563L29.9871 8.79912C30.7971 9.65627 30.7971 11.0531 29.9721 11.9102L19.4721 22.9102Z" fill="white"/>
</svg>
