<svg width="42" height="42" viewBox="0 0 42 42" fill="none" xmlns="http://www.w3.org/2000/svg">
<path d="M39.3493 21.111C39.3581 17.1598 38.0648 13.3157 35.6696 10.1732C33.2744 7.03073 29.9105 4.76491 26.0983 3.72613C22.286 2.68735 18.2377 2.93349 14.5794 4.42648C10.921 5.91946 7.85647 8.57613 5.85959 11.9857C3.86271 15.3952 3.04474 19.3676 3.53218 23.2887C4.01961 27.2098 5.7853 30.861 8.55619 33.6779C11.3271 36.4947 14.9488 38.3202 18.8614 38.872C22.7739 39.4238 26.7592 38.6713 30.2011 36.7307L30.351 36.764L30.3818 36.6218C33.1051 35.0495 35.3672 32.7888 36.9411 30.0664C38.515 27.344 39.3455 24.2556 39.3493 21.111ZM6.03675 21.111C6.04172 19.8135 6.21178 18.5219 6.54285 17.2673H11.9792L18.3752 22.5973L15.928 25.8593C15.5603 26.3537 15.3822 26.9636 15.4259 27.5781C15.4696 28.1927 15.7323 28.7712 16.1663 29.2085L18.8493 31.8915V36.2541C15.2706 35.6466 12.0219 33.7936 9.67736 31.0226C7.33279 28.2515 6.04329 24.7409 6.03675 21.111ZM17.978 27.3968L21.8858 22.1873L12.9068 14.7048H7.45382C8.38854 12.6544 9.76391 10.8353 11.482 9.37711C13.2 7.91895 15.2185 6.85758 17.3936 6.2686C19.5686 5.67962 21.8469 5.57752 24.0659 5.96958C26.285 6.36163 28.3903 7.2382 30.2319 8.53683L29.4567 10.861H22.1626L18.2637 14.7599L30.2485 25.4109L28.1358 34.9165C26.0439 35.9468 23.7436 36.4838 21.4118 36.486V30.8306L17.978 27.3968ZM31.1941 32.9626L32.7483 25.967C32.847 25.5216 32.8251 25.058 32.6848 24.624C32.5444 24.1899 32.2908 23.8012 31.95 23.498L21.9973 14.6497L23.2234 13.4235H29.4567C29.9949 13.424 30.5195 13.255 30.956 12.9403C31.3926 12.6257 31.7189 12.1814 31.8885 11.6708L32.3408 10.3126C33.8431 11.8287 35.0126 13.6414 35.7746 15.635C36.5367 17.6286 36.8746 19.7592 36.7666 21.8907C36.6587 24.0222 36.1074 26.1078 35.1479 28.0143C34.1884 29.9207 32.8418 31.606 31.1941 32.9626Z" fill="white"/>
</svg>
