<svg width="98" height="99" viewBox="0 0 98 99" fill="none" xmlns="http://www.w3.org/2000/svg">
<path d="M0.637766 57.7923V46.4949H14.2552V45.8341H0.637766V35.5276H15.1161V34.8669H0V58.453H15.2436V57.7923H0.637957H0.637766ZM27.5217 41.4736L21.8772 49.1705L16.3599 41.4738H15.5307L21.4943 49.6662L14.9565 58.4528H15.7219L21.8768 50.1612L28.0636 58.4528H28.8608L22.2914 49.6658L28.2868 41.4734H27.5215L27.5217 41.4736ZM30.7745 64.2669V53.6963H30.8382C31.221 55.2379 31.9758 56.4766 33.1026 57.4127C34.2294 58.3485 35.6643 58.8166 37.4077 58.8166C38.5345 58.8166 39.5338 58.5799 40.4055 58.1064C41.2771 57.6329 42.0052 56.9888 42.59 56.1739C43.1746 55.359 43.6211 54.4121 43.9295 53.3329C44.2376 52.254 44.3919 51.1197 44.3919 49.9307C44.3919 48.6532 44.2323 47.4749 43.9134 46.396C43.5945 45.3168 43.1321 44.3808 42.5263 43.5881C41.9203 42.7952 41.1868 42.1784 40.3257 41.7383C39.4647 41.2977 38.492 41.0775 37.4077 41.0775C36.5785 41.0775 35.8079 41.2041 35.0957 41.4573C34.3835 41.7107 33.751 42.0684 33.1983 42.5309C32.6422 42.9971 32.1583 43.5485 31.7631 44.1661C31.3592 44.7938 31.0509 45.482 30.8382 46.2308H30.7745V41.4736H30.1367V64.2669H30.7745ZM37.4077 58.1887C35.4094 58.1887 33.8041 57.4785 32.5923 56.0581C31.3805 54.6377 30.7745 52.595 30.7745 49.9303C30.7745 48.8291 30.9234 47.783 31.221 46.7921C31.5187 45.8012 31.9491 44.9312 32.5125 44.1825C33.076 43.4337 33.7723 42.8391 34.6013 42.3987C35.4304 41.9582 36.366 41.7379 37.4077 41.7379C38.4707 41.7379 39.401 41.9582 40.1982 42.3987C40.9954 42.8391 41.6546 43.4392 42.1754 44.199C42.6962 44.9587 43.0896 45.8287 43.3554 46.8086C43.6211 47.7886 43.7539 48.8291 43.7539 49.9303C43.7539 50.9214 43.6318 51.907 43.3872 52.8868C43.1428 53.8669 42.7653 54.7478 42.255 55.5297C41.7449 56.3113 41.0913 56.9499 40.2939 57.4456C39.4965 57.941 38.5345 58.1887 37.4077 58.1887ZM47.8998 58.453V48.8402C47.8998 47.9153 48.0273 47.0122 48.2826 46.1315C48.5376 45.2506 48.9309 44.4742 49.4624 43.8026C49.994 43.1309 50.6689 42.6023 51.4875 42.2169C52.306 41.8315 53.2787 41.6719 54.4055 41.7379V41.0773C53.4274 41.0554 52.5718 41.1653 51.8384 41.4076C51.1047 41.6499 50.4723 41.9802 49.9408 42.3987C49.4092 42.817 48.9841 43.307 48.6652 43.8687C48.3466 44.4295 48.1101 45.0362 47.9635 45.6689H47.8998V41.4736H47.262V58.4532H47.8998V58.453ZM55.2027 50.0954H68.9156C68.9583 48.9282 68.8467 47.8052 68.5809 46.7261C68.3152 45.6469 67.8899 44.6889 67.3053 43.8522C66.7206 43.0153 65.9659 42.3436 65.041 41.837C64.1161 41.3304 63.0159 41.0773 61.7404 41.0773C60.826 41.0773 59.9331 41.2755 59.0615 41.6721C58.1898 42.0684 57.4244 42.6463 56.7654 43.4061C56.1063 44.1659 55.5748 45.0963 55.1709 46.1977C54.7671 47.2987 54.5649 48.5539 54.5649 49.9634C54.5649 51.2186 54.7031 52.3914 54.9795 53.4814C55.2559 54.5715 55.681 55.5186 56.2551 56.3224C56.8293 57.1262 57.5681 57.7483 58.4715 58.1887C59.375 58.6292 60.4647 58.8384 61.7404 58.8164C63.6112 58.8164 65.1845 58.2712 66.4601 57.1813C67.7358 56.091 68.4905 54.555 68.7244 52.573H68.0866C67.8103 54.445 67.1032 55.8489 65.9659 56.7847C64.8283 57.7208 63.3987 58.1887 61.6765 58.1887C60.5072 58.1887 59.5185 57.9795 58.7106 57.5612C57.9029 57.1428 57.2437 56.57 56.7334 55.8434C56.2233 55.1165 55.8458 54.2632 55.6014 53.2832C55.3568 52.3033 55.224 51.2406 55.2027 50.0954ZM68.2779 49.4348H55.2029C55.2665 48.2456 55.4791 47.1775 55.8405 46.2306C56.202 45.2835 56.675 44.4742 57.2598 43.8026C57.8443 43.1309 58.5248 42.619 59.3007 42.2665C60.0767 41.9141 60.9112 41.7379 61.8041 41.7379C62.8672 41.7379 63.8024 41.9417 64.6105 42.3491C65.4183 42.7566 66.0933 43.3127 66.6356 44.0174C67.1777 44.722 67.5869 45.5424 67.8633 46.4782C68.1397 47.4143 68.2779 48.3998 68.2779 49.4348ZM82.1504 46.4949H82.7882C82.7882 44.6009 82.2566 43.2245 81.1938 42.3656C80.1305 41.5067 78.6848 41.0773 76.8565 41.0773C75.8359 41.0773 74.975 41.2095 74.2733 41.4738C73.5718 41.7379 72.9977 42.0793 72.5512 42.4976C72.1048 42.916 71.786 43.3785 71.5946 43.8851C71.4031 44.3917 71.3074 44.8762 71.3074 45.3386C71.3074 46.2635 71.4669 47.0013 71.786 47.5519C72.1048 48.1024 72.6044 48.5319 73.2847 48.8402C73.7525 49.0603 74.2838 49.2585 74.8793 49.435C75.4745 49.6111 76.1655 49.7982 76.9522 49.9963C77.6537 50.1727 78.3447 50.3488 79.0251 50.5249C79.7054 50.7011 80.306 50.9379 80.8268 51.2351C81.3478 51.5325 81.773 51.9123 82.1026 52.3749C82.432 52.8373 82.5968 53.443 82.5968 54.1916C82.5968 54.9185 82.4322 55.5351 82.1026 56.0414C81.7758 56.5454 81.3457 56.9684 80.8429 57.2804C80.3326 57.5996 79.7638 57.8308 79.1367 57.974C78.5095 58.1171 77.8983 58.1887 77.303 58.1887C75.3683 58.1887 73.8853 57.7428 72.8542 56.851C71.8231 55.959 71.3076 54.555 71.3076 52.639H70.6697C70.6697 54.7753 71.2278 56.3388 72.3439 57.33C73.4602 58.3209 75.1132 58.8164 77.303 58.8164C78.0046 58.8164 78.7114 58.7337 79.4238 58.5686C80.1359 58.4034 80.7738 58.1338 81.3371 57.7592C81.8957 57.39 82.3648 56.8928 82.7084 56.3059C83.0592 55.7111 83.2347 54.9845 83.2347 54.1256C83.2347 53.3107 83.0805 52.6501 82.7723 52.1435C82.4639 51.6371 82.0601 51.2186 81.5603 50.8883C81.0607 50.558 80.4974 50.2992 79.8702 50.1121C79.2394 49.9238 78.6069 49.7421 77.9726 49.5668C77.192 49.3547 76.4107 49.1455 75.6286 48.9393C74.9591 48.7631 74.3372 48.5539 73.7632 48.3116C73.2104 48.0693 72.7692 47.7226 72.4396 47.2711C72.11 46.8197 71.9454 46.1755 71.9454 45.3386C71.9454 45.1846 71.9879 44.9092 72.0729 44.5128C72.1579 44.1163 72.36 43.7144 72.6789 43.307C72.9977 42.8997 73.4866 42.5363 74.1458 42.2169C74.8048 41.8977 75.7085 41.7379 76.8565 41.7379C77.6432 41.7379 78.3606 41.8261 79.0091 42.0022C79.6575 42.1784 80.2157 42.4592 80.6833 42.8446C81.1511 43.23 81.5125 43.72 81.7676 44.3146C82.0227 44.9094 82.1504 45.636 82.1504 46.4949ZM96.9157 46.4949H97.5535C97.5535 44.6009 97.0221 43.2245 95.959 42.3656C94.896 41.5067 93.4503 41.0773 91.6218 41.0773C90.6014 41.0773 89.7402 41.2095 89.0387 41.4738C88.3371 41.7379 87.763 42.0793 87.3167 42.4976C86.8701 42.916 86.5512 43.3785 86.3598 43.8851C86.1684 44.3917 86.0729 44.8762 86.0729 45.3386C86.0729 46.2635 86.2323 47.0013 86.5514 47.5519C86.8701 48.1024 87.3699 48.5319 88.0501 48.8402C88.5179 49.0603 89.0493 49.2585 89.6445 49.435C90.2398 49.6111 90.9308 49.7982 91.7175 49.9963C92.4192 50.1727 93.1101 50.3488 93.7904 50.5249C94.4708 50.7011 95.0713 50.9379 95.5923 51.2351C96.1131 51.5325 96.5384 51.9123 96.8678 52.3749C97.1974 52.8373 97.3622 53.443 97.3622 54.1916C97.3622 54.9185 97.1974 55.5351 96.8678 56.0414C96.5411 56.5454 96.1111 56.9684 95.6084 57.2804C95.0979 57.5996 94.5292 57.8308 93.902 57.974C93.2749 58.1171 92.6636 58.1887 92.0683 58.1887C90.1336 58.1887 88.6508 57.7428 87.6197 56.851C86.5884 55.959 86.0729 54.555 86.0729 52.639H85.4351C85.4351 54.7753 85.9931 56.3388 87.1094 57.33C88.2255 58.3209 89.8784 58.8164 92.0683 58.8164C92.77 58.8164 93.4769 58.7337 94.1891 58.5686C94.9011 58.4034 95.5391 58.1338 96.1026 57.7592C96.6611 57.39 97.1303 56.8928 97.4738 56.3059C97.8247 55.7111 98 54.9845 98 54.1256C98 53.3107 97.8459 52.6501 97.5376 52.1435C97.2294 51.6371 96.8255 51.2186 96.3258 50.8883C95.8262 50.558 95.2627 50.2992 94.6357 50.1121C94.0049 49.9238 93.3723 49.7421 92.7381 49.5668C91.9575 49.3547 91.1761 49.1455 90.3941 48.9393C89.7244 48.7631 89.1025 48.5539 88.5285 48.3116C87.9757 48.0693 87.5345 47.7226 87.2051 47.2711C86.8755 46.8197 86.7107 46.1755 86.7107 45.3386C86.7107 45.1846 86.7532 44.9092 86.8383 44.5128C86.9233 44.1163 87.1255 43.7144 87.4441 43.307C87.763 42.8997 88.2521 42.5363 88.9111 42.2169C89.5703 41.8977 90.4737 41.7379 91.622 41.7379C92.4086 41.7379 93.126 41.8261 93.7745 42.0022C94.423 42.1784 94.9809 42.4592 95.4487 42.8446C95.9165 43.23 96.2779 43.72 96.5331 44.3146C96.7882 44.9094 96.9159 45.636 96.9159 46.4949H96.9157Z" fill="#011C1F"/>
</svg>
