<svg width="44" height="77" viewBox="0 0 44 77" fill="none" xmlns="http://www.w3.org/2000/svg">
<path d="M42.9827 31.5393C42.743 29.5231 41.7671 27.6591 40.2149 26.3222L34.0394 21.0084C32.9022 20.0329 32.2527 18.6083 32.2527 17.1049V4.11911H33.2614C34.2977 4.11911 35.1407 3.27713 35.1407 2.237C35.1407 1.1963 34.2977 0.354893 33.2614 0.354893L9.94056 0.354248C8.90424 0.354248 8.06637 1.19623 8.06637 2.23636C8.06637 3.27706 8.90481 4.11847 9.94056 4.11847H10.9492V17.1049C10.9492 18.6083 10.2952 20.0322 9.16256 21.0084L2.98638 26.3229C1.18555 27.872 0.154297 30.1245 0.154297 32.5012V70.7859C0.154297 74.0183 2.77503 76.6457 5.98936 76.6457H37.205C40.4237 76.6457 43.04 74.0139 43.04 70.7859V69.6343L43.0394 31.5395L42.9827 31.5393ZM39.2935 70.7902C39.2935 71.9464 38.3587 72.8806 37.2119 72.8806H5.99304C4.84621 72.8806 3.91145 71.9419 3.91145 70.7902V32.5055C3.91145 31.2293 4.46399 30.0177 5.43091 29.1899L11.6064 23.8761C13.5775 22.1786 14.7058 19.7139 14.7058 17.1099L14.7064 4.11895H28.5037V17.1054C28.5037 19.7095 29.6319 22.1742 31.6031 23.8716L37.7786 29.1854C38.4969 29.8055 38.9851 30.6333 39.1927 31.5398L11.732 31.5391C9.48021 31.5391 7.65158 33.3753 7.65158 35.6368V65.5359C7.65158 67.7972 9.48005 69.6336 11.732 69.6336H39.2946L39.2935 70.7902ZM39.2935 35.3085V65.8649H11.7309C11.551 65.8649 11.4039 65.7171 11.4039 65.5365V35.6374C11.4039 35.4568 11.551 35.309 11.7309 35.309L39.2935 35.3085ZM20.2375 52.0137L17.7184 51.8428C16.5671 51.7686 15.577 52.6383 15.4987 53.7899C15.4203 54.9416 16.2908 55.9404 17.4377 56.0191L21.5225 56.2965L20.1412 57.9334C19.5193 58.6689 19.6118 59.7696 20.3436 60.3889C20.6706 60.6664 21.0664 60.8006 21.4673 60.8006C21.9601 60.8006 22.4484 60.5922 22.7934 60.1857L24.5712 58.0818V62.0452C24.5712 62.4846 24.9258 62.8407 25.3634 62.8407C25.8009 62.8407 26.1555 62.4846 26.1555 62.0452V58.0818L27.9333 60.1857C28.279 60.5928 28.7666 60.8006 29.2594 60.8006C29.6552 60.8006 30.0561 60.6664 30.3831 60.3889C31.1155 59.7644 31.2029 58.6637 30.5855 57.9334L29.2042 56.2965L33.289 56.0191C34.4359 55.9403 35.3065 54.9416 35.228 53.7899C35.1497 52.6383 34.1506 51.764 33.0083 51.8428L30.4757 52.0137L35.0443 47.0837C35.8275 46.2372 35.7812 44.9146 34.9383 44.1287C34.0954 43.3422 32.7783 43.3886 31.9957 44.2351L27.4547 49.1328V39.1342C27.4547 37.978 26.5199 37.0438 25.3731 37.0438C24.2264 37.0438 23.2915 37.9826 23.2915 39.1342V49.1514L18.7371 44.2403C17.9539 43.3938 16.6323 43.348 15.7945 44.1338C14.9515 44.9203 14.9059 46.2475 15.6885 47.0889L20.2375 52.0137Z" fill="#03434B"/>
</svg>
