<svg width="98" height="99" viewBox="0 0 98 99" fill="none" xmlns="http://www.w3.org/2000/svg">
<g clip-path="url(#clip0_294_1793)">
<path d="M0 0.566895H98V98.5669H0V0.566895Z" fill="#F0DB4F"/>
<path d="M89.9792 75.1942C89.2619 70.7227 86.3462 66.9685 77.7106 63.4658C74.711 62.0871 71.3667 61.0998 70.3699 58.8267C70.0159 57.5039 69.9694 56.7586 70.1929 55.9575C70.8357 53.3584 73.9378 52.548 76.3971 53.2932C77.9808 53.8242 79.4806 55.0446 80.3842 56.9915C84.6135 54.2528 84.6041 54.2713 87.5572 52.3897C86.4766 50.7129 85.899 49.9396 85.191 49.2224C82.6479 46.3811 79.1825 44.9186 73.6397 45.0304C72.6802 45.1515 71.7115 45.2818 70.7519 45.403C67.9852 46.1017 65.3488 47.5549 63.8024 49.5019C59.1633 54.7652 60.4861 63.9782 66.1313 67.7697C71.6927 71.9431 79.8625 72.8933 80.9059 76.7965C81.9213 81.5754 77.394 83.1217 72.8945 82.5722C69.5781 81.8829 67.7337 80.1967 65.7401 77.1319C62.0698 79.2559 62.0698 79.2558 58.297 81.4264C59.1913 83.3827 60.1321 84.2676 61.632 85.9631C68.7305 93.164 86.4952 92.81 89.6812 81.9108C89.8116 81.5381 90.6687 79.0415 89.9792 75.1942ZM53.2758 45.6078H44.1093C44.1093 53.5261 44.0721 61.3885 44.0721 69.3067C44.0721 74.3464 44.333 78.967 43.5132 80.3829C42.1717 83.1682 38.697 82.8236 37.1134 82.2832C35.5018 81.4914 34.682 80.3642 33.7318 78.7713C33.471 78.3149 33.2753 77.9609 33.21 77.9329C30.7229 79.4514 28.2448 80.979 25.7576 82.4976C26.9966 85.0407 28.8224 87.2485 31.1606 88.683C34.654 90.779 39.349 91.4218 44.2584 90.2946C47.4537 89.3631 50.211 87.4348 51.6549 84.5004C53.7416 80.6531 53.2945 75.9953 53.2758 70.8438C53.3224 62.4411 53.2758 54.0385 53.2758 45.6078Z" fill="#323330"/>
</g>
<defs>
<clipPath id="clip0_294_1793">
<rect width="98" height="98" fill="white" transform="translate(0 0.566895)"/>
</clipPath>
</defs>
</svg>
