<svg width="90" height="99" viewBox="0 0 90 99" fill="none" xmlns="http://www.w3.org/2000/svg">
<path d="M41.0751 1.61242C43.5074 0.22153 46.6755 0.215248 49.1057 1.61242C61.3318 8.51414 73.5618 15.4051 85.7858 22.311C88.085 23.6048 89.6229 26.1611 89.5995 28.8078V70.3313C89.6167 73.0876 87.9268 75.7049 85.5011 76.9695C73.3152 83.8332 61.1355 90.7052 48.9516 97.5689C46.469 98.987 43.2374 98.8778 40.8323 97.3434C37.179 95.2276 33.5194 93.1223 29.8657 91.0085C29.1191 90.5639 28.2775 90.21 27.7503 89.4868C28.2163 88.8592 29.0496 88.781 29.7266 88.507C31.2516 88.0226 32.6522 87.2449 34.0532 86.4903C34.4075 86.2481 34.84 86.341 35.1796 86.5577C38.3036 88.3472 41.4001 90.1887 44.5346 91.961C45.2033 92.3467 45.8804 91.8347 46.4519 91.5164C58.4101 84.7644 70.3829 78.0379 82.339 71.2838C82.782 71.0709 83.0269 70.6011 82.9909 70.1163C82.9993 56.4186 82.993 42.7184 82.9951 29.0207C83.0457 28.4707 82.7271 27.9649 82.2293 27.7398C70.0856 20.9075 57.9482 14.0648 45.8066 7.23076C45.5963 7.08628 45.3471 7.00876 45.0918 7.00838C44.8365 7.00801 44.5871 7.0848 44.3763 7.22867C32.2348 14.0648 20.0995 20.9138 7.95788 27.7457C7.46178 27.9712 7.12883 28.4686 7.18788 29.0207C7.18997 42.7184 7.18788 56.4186 7.18788 70.1184C7.16682 70.3549 7.21883 70.5922 7.33689 70.7983C7.45494 71.0045 7.63339 71.1695 7.84818 71.2712C11.0882 73.1068 14.3324 74.9294 17.5746 76.7587C19.4011 77.7408 21.6437 78.3244 23.656 77.5719C25.4319 76.9356 26.6767 75.1252 26.6428 73.2415C26.6595 59.6237 26.6344 46.0039 26.6553 32.3882C26.611 31.7837 27.185 31.2842 27.7733 31.3411C29.3301 31.3306 30.889 31.3201 32.4458 31.3453C33.0956 31.3306 33.5428 31.9816 33.4624 32.5906C33.4561 46.2946 33.4792 59.9989 33.4519 73.7029C33.4561 77.3552 31.9542 81.3292 28.5727 83.1163C24.4068 85.2722 19.2578 84.815 15.1423 82.7477C11.5794 80.9711 8.17938 78.8745 4.67977 76.9712C2.24782 75.7137 0.566312 73.0858 0.583431 70.3316V28.8078C0.557927 26.1063 2.15698 23.5036 4.52779 22.2286C16.7116 15.3593 28.8934 8.48483 41.0751 1.61242Z" fill="#8CC84B"/>
<path d="M52.7336 30.4499C58.5549 30.1097 64.7868 30.2484 70.0252 32.8523C74.081 34.8478 76.3296 39.0357 76.4011 43.127C76.2878 43.6789 75.6525 43.9833 75.0723 43.9454C73.3833 43.9434 71.6939 43.9663 70.005 43.935C69.2885 43.96 68.8721 43.3602 68.7821 42.7851C68.2968 40.8275 67.1211 38.8887 65.0919 37.9445C61.9768 36.5284 58.365 36.5996 54.9683 36.6292C52.4886 36.7487 49.8221 36.9437 47.7213 38.2677C46.1085 39.2706 45.6186 41.2953 46.1942 42.9258C46.737 44.0966 48.2254 44.4744 49.4432 44.8226C56.4587 46.4886 63.8928 46.3228 70.7742 48.5153C73.6233 49.4091 76.4103 51.1467 77.3855 53.8553C78.6611 57.4854 78.102 61.8245 75.2575 64.7388C72.9508 67.1371 69.5912 68.4423 66.2404 69.1513C61.7828 70.0538 57.1567 70.0767 52.6298 69.676C48.3731 69.2354 43.9434 68.2199 40.6573 65.5864C37.8473 63.371 36.4749 59.9191 36.6111 56.5875C36.6436 56.0248 37.2606 55.6325 37.8542 55.6787C39.5551 55.6662 41.2559 55.662 42.9567 55.6808C43.6361 55.6366 44.1398 56.1697 44.1746 56.7511C44.4884 58.6163 45.2604 60.5738 47.0516 61.6796C50.5084 63.7046 54.8458 63.566 58.804 63.6226C62.0832 63.4905 65.7643 63.4506 68.4404 61.4826C69.8522 60.3601 70.2706 58.4821 69.889 56.8665C69.4756 55.5025 67.9042 54.8669 66.5547 54.4513C59.6292 52.4621 52.112 53.1839 45.2535 50.9344C42.4692 50.0409 39.7767 48.3516 38.7069 45.7543C37.2143 42.0782 37.8982 37.5313 41.0408 34.7154C44.1049 31.9144 48.5281 30.8357 52.7336 30.4496V30.4499Z" fill="#8CC84B"/>
</svg>
