<svg width="98" height="99" viewBox="0 0 98 99" fill="none" xmlns="http://www.w3.org/2000/svg">
<g clip-path="url(#clip0_294_1803)">
<path d="M97.6202 59.2444C97.0326 57.5188 95.4933 56.317 93.5027 56.0286C92.564 55.8927 91.4891 55.9506 90.217 56.2049C87.9998 56.6484 86.3548 56.8173 85.1543 56.85C89.6857 49.4321 93.3702 40.973 95.4914 33.0102C98.9214 20.1345 97.0885 14.2688 94.9467 11.6156C89.2784 4.593 81.0085 0.820379 71.0316 0.704943C65.7094 0.641844 61.0371 1.66072 58.5998 2.39342C56.3305 2.00517 53.8904 1.7884 51.3302 1.74832C46.5308 1.67408 42.2904 2.6885 38.6671 4.77339C36.6612 4.11567 33.4417 3.18848 29.7238 2.59682C20.9796 1.20492 13.9321 2.28949 8.7771 5.82048C2.53496 10.0957 -0.358717 17.5236 0.176455 27.898C0.346423 31.1918 2.24671 41.2135 5.23877 50.7178C6.95836 56.1808 8.79203 60.7173 10.6889 64.2026C13.3789 69.1448 16.2573 72.0552 19.4886 73.1004C21.2997 73.6854 24.5903 74.0952 28.0513 71.3002C28.49 71.8154 29.0754 72.3272 29.8521 72.8027C30.8386 73.4059 32.0448 73.8988 33.2495 74.1909C37.591 75.2432 41.6576 74.98 45.1271 73.505C45.1485 74.1033 45.165 74.6749 45.1787 75.1686C45.2017 75.9692 45.2247 76.7542 45.2549 77.4884C45.4605 82.4525 45.8089 86.3124 46.8409 89.013C46.8976 89.1615 46.9738 89.3879 47.0541 89.6281C47.569 91.1566 48.43 93.7155 50.6204 95.7194C52.8886 97.7954 55.6322 98.432 58.145 98.432C59.4052 98.432 60.6076 98.2716 61.6623 98.0526C65.4215 97.2713 69.691 96.0813 72.7795 91.8173C75.6996 87.7863 77.1191 81.715 77.376 72.1487C77.4093 71.8781 77.4399 71.6198 77.4694 71.3737L77.5306 70.8682L78.2185 70.9268L78.3958 70.9383C82.2247 71.1076 86.9064 70.3203 89.7818 69.0253C92.0537 68.0031 99.3345 64.2761 97.6202 59.2444Z" fill="black"/>
<path d="M91.0733 60.2229C79.6885 62.5 78.9057 58.7626 78.9057 58.7626C90.926 41.4685 95.9511 19.5161 91.615 14.1433C79.7846 -0.512511 59.306 6.41881 58.9642 6.59846L58.8543 6.61776C56.6049 6.16493 54.0879 5.89545 51.2585 5.85054C46.1074 5.76888 42.1997 7.16005 39.2344 9.34033C39.2344 9.34033 2.70261 -5.25204 4.40192 27.6927C4.76329 34.7012 14.7624 80.7236 26.6885 66.8227C31.0476 61.7395 35.2597 57.4416 35.2597 57.4416C37.3514 58.789 39.8557 59.4764 42.481 59.2296L42.6851 59.0618C42.6215 59.6928 42.6506 60.3101 42.7666 61.0409C39.6942 64.3692 40.5972 64.9535 34.4554 66.1795C28.2404 67.4214 31.8913 69.6321 34.2751 70.2104C37.1649 70.9108 43.8504 71.9034 48.3676 65.7719L48.1876 66.4716C49.3912 67.4066 50.2364 72.5525 50.0948 77.2178C49.9532 81.8828 49.8586 85.0856 50.8068 87.5874C51.7558 90.0891 52.701 95.7179 60.7753 94.0406C67.5216 92.6387 71.0178 89.006 71.5044 82.9462C71.8493 78.6383 72.6306 79.2753 72.6796 75.4236L73.3063 73.6004C74.0286 67.7607 73.4211 65.8766 77.5773 66.7529L78.5879 66.839C81.6466 66.9738 85.6508 66.3617 88.0009 65.3028C93.0609 63.026 96.0622 59.224 91.0726 60.2229H91.0733Z" fill="#336791"/>
<path d="M41.3728 30.8268C40.3469 30.6884 39.4178 30.8164 38.9477 31.1616C38.6835 31.3557 38.6016 31.5807 38.5794 31.7355C38.5205 32.1456 38.8168 32.5992 38.999 32.833C39.5142 33.4952 40.2668 33.9503 41.0118 34.0505C41.1198 34.0653 41.2273 34.072 41.3341 34.072C42.5764 34.072 43.706 33.134 43.8056 32.4418C43.93 31.5747 42.6319 30.9968 41.3728 30.8272M75.3604 30.8543C75.2624 30.1747 74.0152 29.9809 72.8316 30.1405C71.6494 30.3001 70.5033 30.8175 70.599 31.4986C70.6756 32.0283 71.6621 32.9325 72.8296 32.9325C72.9284 32.9325 73.0279 32.9262 73.1282 32.9125C73.9076 32.8078 74.4796 32.3279 74.7514 32.0513C75.1648 31.6297 75.4044 31.1598 75.3604 30.8543Z" fill="white"/>
<path d="M94.8616 59.9643C94.4275 58.6915 93.0303 58.2821 90.7089 58.7468C83.8163 60.1261 81.348 59.1707 80.5375 58.5921C85.895 50.6786 90.3023 41.1127 92.68 32.1878C93.8062 27.9601 94.4283 24.0338 94.4792 20.8335C94.5355 17.3211 93.9184 14.74 92.6459 13.1632C87.5155 6.80684 79.9855 3.39723 70.8708 3.3037C64.6045 3.2354 59.3102 4.79025 58.2839 5.22749C56.1225 4.70637 53.7663 4.38641 51.2011 4.34558C46.4971 4.27172 42.4309 5.36372 39.0644 7.58965C37.6021 7.06184 33.8229 5.80393 29.2012 5.08199C21.2112 3.83485 14.8618 4.77986 10.3309 7.89216C4.92442 11.6061 2.42848 18.245 2.91197 27.6238C3.07467 30.7792 4.92901 40.4861 7.85523 49.7822C11.7071 62.0176 15.8943 68.9441 20.2997 70.3691C20.8153 70.5357 21.4099 70.6523 22.0656 70.6523C23.6727 70.6523 25.643 69.95 27.693 67.5604C30.1933 64.6521 32.7798 61.8144 35.4491 59.0508C37.181 59.952 39.0835 60.4554 41.0294 60.5058C41.0332 60.5552 41.0382 60.6046 41.0428 60.6536C40.7078 61.0408 40.3798 61.4337 40.0589 61.8321C38.7107 63.4916 38.4301 63.8371 34.0901 64.7035C32.8556 64.9507 29.5768 65.6058 29.5285 67.8343C29.4765 70.2692 33.4045 71.2918 33.852 71.4002C35.4116 71.7788 36.9141 71.9655 38.347 71.9655C41.8318 71.9655 44.8985 70.8549 47.3492 68.7062C47.2738 77.3865 47.6471 85.9399 48.722 88.5459C49.6025 90.6794 51.7531 95.8933 58.5465 95.8929C59.5433 95.8929 60.6405 95.7804 61.8475 95.5295C68.9376 94.056 72.0165 91.0175 73.2075 84.3189C73.8448 80.739 74.9385 72.1904 75.453 67.6049C76.5387 67.9334 77.9363 68.0837 79.4473 68.0834C82.5986 68.0834 86.2349 67.4342 88.5154 66.4079C91.0771 65.2543 95.7 62.4237 94.8616 59.9643ZM77.9773 28.9786C77.9539 30.3323 77.7618 31.5612 77.5581 32.844C77.3388 34.2237 77.1121 35.6501 77.0551 37.3816C76.9988 39.0668 77.2159 40.8187 77.4257 42.5131C77.8498 45.9354 78.2851 49.4586 76.6003 52.935C76.3205 52.4542 76.0712 51.9572 75.8538 51.4469C75.6444 50.9548 75.1897 50.1642 74.5599 49.0699C72.1103 44.8103 66.3739 34.8354 69.3104 30.7651C70.1852 29.5536 72.4051 28.3079 77.9773 28.9786ZM71.223 6.04482C79.3899 6.21965 85.8502 9.18199 90.4241 14.8491C93.9322 19.1959 90.0692 38.9747 78.8861 56.038C78.7736 55.8994 78.6606 55.7611 78.5469 55.6234L78.4053 55.4519C81.2951 50.8245 80.7301 46.246 80.2271 42.1869C80.0204 40.521 79.8251 38.9476 79.8749 37.4696C79.9262 35.9032 80.1398 34.5596 80.3465 33.2605C80.6003 31.6596 80.8587 30.003 80.7875 28.0503C80.8407 27.8454 80.8622 27.6034 80.8342 27.3161C80.6524 25.4435 78.4474 19.8392 73.9532 14.7667C71.4948 11.9922 67.9097 8.88728 63.0147 6.79311C65.1202 6.36997 67.9993 5.97541 71.223 6.04482ZM25.5236 65.8114C23.265 68.4445 21.7054 67.9397 21.1924 67.7742C17.8505 66.6933 13.9726 59.8444 10.5537 48.9838C7.5953 39.5864 5.86652 30.1367 5.72947 27.4869C5.29766 19.1065 7.39279 13.266 11.9571 10.1274C19.3852 5.02001 31.5976 8.077 36.5049 9.6274C36.4345 9.69496 36.361 9.75806 36.2913 9.82672C28.2385 17.712 28.4295 31.1841 28.4494 32.0078C28.4486 32.3255 28.4762 32.7754 28.5137 33.3941C28.6523 35.6601 28.9103 39.8774 28.2212 44.6533C27.5812 49.0915 28.9922 53.4353 32.0919 56.5714C32.41 56.8926 32.7443 57.1983 33.0937 57.4874C31.714 58.9202 28.7155 62.0885 25.5236 65.8114ZM34.1288 54.6788C31.6306 52.1511 30.4959 48.6353 31.0154 45.0319C31.7427 39.9869 31.4744 35.5929 31.3301 33.2323C31.3098 32.9019 31.2918 32.6124 31.2814 32.3841C32.4578 31.3727 37.9095 28.5406 41.7973 29.4043C43.5713 29.7982 44.6523 30.9696 45.1017 32.9843C47.4277 43.4155 45.4095 47.763 43.7879 51.2569C43.4537 51.9766 43.1379 52.657 42.8684 53.3607L42.6594 53.9049C42.1303 55.2804 41.6381 56.5595 41.333 57.774C38.677 57.7666 36.0934 56.6664 34.1288 54.6784V54.6788ZM34.5365 68.7463C33.7609 68.5585 33.0634 68.2322 32.6542 67.9616C32.9961 67.8057 33.6043 67.5934 34.6594 67.3826C39.7649 66.3637 40.5535 65.6444 42.2754 63.5246C42.6701 63.0384 43.1176 62.4875 43.7374 61.8165L43.7382 61.8157C44.6611 60.8135 45.0834 60.9835 45.849 61.2916C46.4695 61.5403 47.074 62.2945 47.319 63.1245C47.435 63.5164 47.5651 64.2603 47.1391 64.8393C43.5422 69.7225 38.3007 69.6598 34.5365 68.7463ZM61.2564 92.8549C55.0105 94.1525 52.799 91.0624 51.3416 87.53C50.401 85.2495 49.9386 74.9657 50.2666 63.6089C50.2709 63.4578 50.2486 63.3119 50.2058 63.1746C50.1674 62.9034 50.1091 62.6352 50.0312 62.3721C49.5435 60.7196 48.3549 59.3374 46.9289 58.7643C46.3623 58.5368 45.3226 58.1192 44.0731 58.4291C44.3396 57.3646 44.8016 56.1623 45.3027 54.8606L45.5129 54.3132C45.7495 53.6959 46.0465 53.0564 46.3604 52.3793C48.0574 48.724 50.3815 43.7172 47.8591 32.4064C46.9144 28.1698 43.7592 26.1009 38.9764 26.5816C36.1091 26.8692 33.4857 27.9909 32.1772 28.6342C31.8959 28.7722 31.6386 28.9059 31.3982 29.0358C31.7634 24.7673 33.1431 16.79 38.3041 11.7427C41.5538 8.56547 45.8815 6.99614 51.1544 7.08077C61.5439 7.24557 68.2064 12.4153 71.9664 16.7235C75.2065 20.4356 76.9609 24.1752 77.6611 26.1922C72.3955 25.6729 68.8143 26.6807 66.999 29.1972C63.0495 34.6713 69.1596 45.2958 72.0961 50.4021C72.6348 51.3378 73.0995 52.1466 73.2457 52.4903C74.202 54.7374 75.44 56.2377 76.3438 57.3327C76.621 57.6682 76.8897 57.9937 77.0942 58.278C75.4994 58.7238 72.6348 59.7538 72.8958 64.9024C72.6853 67.4858 71.1881 79.5809 70.4275 83.8542C69.4233 89.4998 67.2807 91.6025 61.2564 92.8552V92.8549ZM87.3275 63.927C85.6967 64.6608 82.9676 65.2112 80.3752 65.3296C77.5118 65.4595 76.054 65.0186 75.711 64.7473C75.5503 61.5388 76.7818 61.2036 78.0853 60.8488C78.2901 60.7931 78.4899 60.7386 78.6828 60.6732C78.8026 60.7679 78.9339 60.8618 79.0779 60.9538C81.3793 62.4267 85.4843 62.5855 91.2797 61.4256L91.3432 61.4134C90.5615 62.1219 89.2239 63.0729 87.3275 63.927Z" fill="white"/>
</g>
<defs>
<clipPath id="clip0_294_1803">
<rect width="98" height="98" fill="white" transform="translate(0 0.566895)"/>
</clipPath>
</defs>
</svg>
