<svg width="68" height="53" viewBox="0 0 68 53" fill="none" xmlns="http://www.w3.org/2000/svg">
<path d="M50.3985 29.0206H39.4293V3.21313H65.9333V26.9412V26.968L65.9343 26.9949C66.0547 30.3549 65.3308 33.6919 63.8279 36.7038C62.483 39.1915 60.6207 41.3664 58.3646 43.0834C56.0236 44.8529 53.4348 46.272 50.6802 47.2955L50.6711 47.2989L50.662 47.3024C48.1246 48.283 45.6174 49.1479 43.1405 49.8977L40.224 44.5985C41.6532 44.0106 43.0526 43.3527 44.4171 42.627C45.9458 41.8184 47.3495 40.7944 48.5849 39.5866L48.5932 39.5785L48.6013 39.5703C49.7229 38.4393 50.5845 37.0788 51.1259 35.5827L51.1331 35.5627L51.1397 35.5426C51.6778 33.913 51.9343 32.2042 51.8982 30.489L51.8672 29.0206H50.3985ZM3.62684 44.6266C5.0531 44.0396 6.45024 43.3839 7.81328 42.6617L7.81549 42.6606C9.33945 41.8499 10.7394 40.8265 11.9728 39.6213L11.9812 39.6131L11.9895 39.6047C13.1111 38.4738 13.9726 37.1132 14.514 35.6171L14.5207 35.5986L14.5269 35.5799C15.0685 33.9508 15.3282 32.2418 15.295 30.5259L15.2665 29.055H13.7953H2.94717V3.21313H29.3474V26.9412V26.9796L29.3493 27.0179C29.5076 30.108 28.9043 33.1899 27.5916 35.9955C26.2789 38.8011 24.2964 41.2456 21.8161 43.1156L21.81 43.1202C19.483 44.8932 16.9035 46.3119 14.1563 47.3294L14.1455 47.3334L14.1347 47.3376C11.6038 48.3194 9.09661 49.1854 6.61314 49.9359L3.62684 44.6266Z" stroke="#FABF4B" stroke-width="3"/>
</svg>
