<svg width="98" height="99" viewBox="0 0 98 99" fill="none" xmlns="http://www.w3.org/2000/svg">
<path d="M98 49.2002C98 42.8215 89.87 36.7764 77.4052 33.0277C80.2817 20.5449 79.0033 10.6137 73.3702 7.43416C72.0718 6.68834 70.5536 6.33506 68.8956 6.33506V10.7119C69.8145 10.7119 70.5536 10.8885 71.1729 11.2222C73.8895 12.7531 75.0681 18.5823 74.1492 26.0797C73.9295 27.9247 73.5699 29.8677 73.1305 31.85C69.2152 30.908 64.9405 30.1818 60.446 29.7107C57.7493 26.0797 54.9527 22.7824 52.1362 19.8973C58.6482 13.9503 64.7607 10.6922 68.9156 10.6922V6.31543C63.4223 6.31543 56.2311 10.1623 48.96 16.8355C41.689 10.2016 34.4978 6.39394 29.0045 6.39394V10.7707C33.1394 10.7707 39.2719 14.0092 45.7839 19.9169C42.9874 22.802 40.1908 26.0797 37.534 29.7107C33.0196 30.1818 28.7448 30.908 24.8296 31.8697C24.3702 29.907 24.0306 28.0032 23.7909 26.1779C22.852 18.6804 24.0106 12.8512 26.7073 11.3007C27.3066 10.9474 28.0856 10.7904 29.0045 10.7904V6.41356C27.3265 6.41356 25.8084 6.76685 24.49 7.51267C18.8769 10.6922 17.6184 20.6038 20.5149 33.0473C8.09009 36.8157 0 42.8411 0 49.2002C0 55.579 8.13004 61.6241 20.5948 65.3728C17.7183 77.8555 18.9967 87.7868 24.6298 90.9663C25.9283 91.7121 27.4464 92.0654 29.1243 92.0654C34.6176 92.0654 41.8088 88.2185 49.0799 81.5454C56.351 88.1793 63.5422 91.9869 69.0355 91.9869C70.7134 91.9869 72.2316 91.6336 73.5499 90.8878C79.1631 87.7082 80.4215 77.7967 77.5251 65.3532C89.9099 61.6044 98 55.5594 98 49.2002ZM71.9918 36.1091C71.2527 38.641 70.3339 41.2513 69.2951 43.8617C68.4762 42.2916 67.6172 40.7214 66.6784 39.1513C65.7595 37.5811 64.7807 36.0502 63.8019 34.5586C66.6384 34.9707 69.375 35.481 71.9918 36.1091ZM62.843 57.0117C61.285 59.6614 59.6869 62.1736 58.0289 64.5092C55.0526 64.7644 52.0363 64.9018 49 64.9018C45.9837 64.9018 42.9674 64.7644 40.011 64.5289C38.353 62.1933 36.735 59.7006 35.1769 57.0706C33.6588 54.4995 32.2805 51.8891 31.022 49.2591C32.2605 46.6291 33.6588 43.9991 35.157 41.428C36.715 38.7783 38.3131 36.2661 39.9711 33.9305C42.9474 33.6754 45.9637 33.538 49 33.538C52.0163 33.538 55.0326 33.6754 57.989 33.9109C59.647 36.2465 61.265 38.7391 62.8231 41.3691C64.3412 43.9402 65.7195 46.5506 66.978 49.1806C65.7195 51.8106 64.3412 54.4406 62.843 57.0117ZM69.2951 54.4603C70.3738 57.0903 71.2927 59.7203 72.0518 62.2718C69.435 62.8998 66.6784 63.4298 63.8219 63.8419C64.8007 62.3306 65.7795 60.7801 66.6983 59.1903C67.6172 57.6202 68.4762 56.0304 69.2951 54.4603ZM49.04 75.4022C47.1822 73.518 45.3245 71.4179 43.4868 69.1216C45.2846 69.2001 47.1223 69.2589 48.98 69.2589C50.8577 69.2589 52.7155 69.2197 54.5332 69.1216C52.7354 71.4179 50.8777 73.518 49.04 75.4022ZM34.1782 63.8419C31.3416 63.4298 28.605 62.9195 25.9882 62.2914C26.7273 59.7595 27.6461 57.1491 28.6849 54.5388C29.5039 56.1089 30.3628 57.6791 31.3017 59.2492C32.2405 60.8194 33.1993 62.3503 34.1782 63.8419ZM48.9401 22.9983C50.7978 24.8825 52.6555 26.9826 54.4933 29.2789C52.6955 29.2004 50.8577 29.1415 49 29.1415C47.1223 29.1415 45.2646 29.1808 43.4468 29.2789C45.2446 26.9826 47.1023 24.8825 48.9401 22.9983ZM34.1582 34.5586C33.1794 36.0698 32.2006 37.6204 31.2817 39.2101C30.3628 40.7803 29.5039 42.3504 28.6849 43.9206C27.6062 41.2906 26.6873 38.6606 25.9283 36.1091C28.545 35.5007 31.3017 34.9707 34.1582 34.5586ZM16.0803 59.1315C9.00897 56.1678 4.43457 52.2817 4.43457 49.2002C4.43457 46.1188 9.00897 42.2131 16.0803 39.269C17.7982 38.5428 19.6759 37.8951 21.6135 37.2867C22.7521 41.1336 24.2503 45.1375 26.108 49.2395C24.2703 53.3219 22.7921 57.3062 21.6735 61.1334C19.6959 60.525 17.8182 59.8577 16.0803 59.1315ZM26.8272 87.1783C24.1105 85.6474 22.9319 79.8182 23.8508 72.3207C24.0705 70.4758 24.4301 68.5327 24.8696 66.5504C28.7848 67.4925 33.0595 68.2187 37.554 68.6898C40.2507 72.3207 43.0473 75.6181 45.8638 78.5032C39.3518 84.4502 33.2393 87.7083 29.0844 87.7083C28.1855 87.6886 27.4264 87.512 26.8272 87.1783ZM74.2091 72.2226C75.148 79.7201 73.9894 85.5493 71.2927 87.0998C70.6934 87.4531 69.9144 87.6101 68.9955 87.6101C64.8606 87.6101 58.7281 84.3717 52.2161 78.464C55.0126 75.5788 57.8092 72.3011 60.466 68.6701C64.9804 68.1991 69.2552 67.4729 73.1704 66.5112C73.6298 68.4935 73.9894 70.3973 74.2091 72.2226ZM81.8997 59.1315C80.1818 59.8577 78.3041 60.5053 76.3665 61.1138C75.2279 57.2669 73.7297 53.263 71.872 49.161C73.7097 45.0786 75.1879 41.0943 76.3066 37.2671C78.2841 37.8755 80.1618 38.5428 81.9197 39.269C88.991 42.2327 93.5654 46.1188 93.5654 49.2002C93.5455 52.2817 88.9711 56.1874 81.8997 59.1315Z" fill="#61DAFB"/>
<path d="M48.9801 58.1697C54.0218 58.1697 58.1089 54.1539 58.1089 49.2002C58.1089 44.2465 54.0218 40.2307 48.9801 40.2307C43.9384 40.2307 39.8513 44.2465 39.8513 49.2002C39.8513 54.1539 43.9384 58.1697 48.9801 58.1697Z" fill="#61DAFB"/>
</svg>
