<svg width="98" height="99" viewBox="0 0 98 99" fill="none" xmlns="http://www.w3.org/2000/svg">
<g clip-path="url(#clip0_294_1806)">
<path d="M79.1957 31.8189V67.1221L49.1453 84.8701L48.8736 85.1168V98.3112L49.1453 98.5669L91.4669 74.1633V24.9705L91.0671 24.8728L79.1357 31.5318L79.1957 31.8189Z" fill="#2F406A"/>
<path d="M18.9981 67.4112L49.1451 84.8701V98.5669L6.53351 74.0669V25.0669L6.97078 25.001L18.8677 31.9057L18.9981 32.3011V67.4112Z" fill="#2379BD"/>
<path d="M18.9981 32.3011L6.53351 25.0669L49.0486 0.566895L91.4668 24.9705L79.1956 31.8189L49.0486 14.6496L18.9981 32.3011Z" fill="#03AFEF"/>
<path d="M48.6277 63.3736L48.3012 63.0411V49.7848L48.6277 49.6165L48.707 49.2896L60.0917 42.6602L60.44 42.738V56.397L48.6277 63.3736Z" fill="#2F406A"/>
<path d="M36.6185 56.8227V42.64L36.9486 42.6238L48.5294 49.3516L48.628 49.6166V63.3737L36.6185 56.8227Z" fill="#2379BD"/>
<path d="M48.4309 35.6631L36.6185 42.64L48.628 49.6166L60.4403 42.738L48.4309 35.6631Z" fill="#03AFEF"/>
<path d="M33.9279 72.0211L33.6018 71.6886V58.4319L33.9279 58.264L34.0075 57.9371L45.3919 51.3076L45.7403 51.3854V65.0442L33.9279 72.0211Z" fill="#2F406A"/>
<path d="M21.9185 65.4702V51.2872L22.2482 51.271L33.829 57.9992L33.9276 58.2641V72.0212L21.9185 65.4702Z" fill="#2379BD"/>
<path d="M33.7308 44.3105L21.9185 51.2871L33.9276 58.264L45.7399 51.3855L33.7308 44.3105Z" fill="#03AFEF"/>
<path d="M64.3776 72.3485L64.0512 72.016V58.7593L64.3776 58.5914L64.4569 58.2645L75.8416 51.635L76.19 51.7128V65.3716L64.3776 72.3485Z" fill="#2F406A"/>
<path d="M52.3683 65.7976V51.6146L52.6984 51.5984L64.2791 58.3266L64.3777 58.5915V72.3486L52.3683 65.7976Z" fill="#2379BD"/>
<path d="M64.1806 44.6382L52.3683 51.6148L64.3777 58.5917L76.19 51.7131L64.1806 44.6382Z" fill="#03AFEF"/>
<path d="M49.6776 80.9959L49.3515 80.6634V67.4068L49.6776 67.2389L49.7573 66.9116L61.142 60.2825L61.49 60.3603V74.019L49.6776 80.9959Z" fill="#2F406A"/>
<path d="M37.6684 74.4451V60.2621L37.9982 60.2458L49.5793 66.9737L49.6775 67.239V80.9961L37.6684 74.4451Z" fill="#2379BD"/>
<path d="M49.4808 53.2852L37.6684 60.2621L49.6775 67.239L61.4898 60.3604L49.4808 53.2852Z" fill="#03AFEF"/>
<path d="M48.6277 44.5726L48.3012 44.2398V30.9834L48.6277 30.8155L48.707 30.4883L60.0917 23.8591L60.44 23.937V37.5957L48.6277 44.5726Z" fill="#2F406A"/>
<path d="M36.6185 38.0215V23.8385L36.9486 23.8223L48.5294 30.5501L48.628 30.8154V44.5725L36.6185 38.0215Z" fill="#2379BD"/>
<path d="M48.4309 16.8616L36.6185 23.8385L48.628 30.8154L60.4403 23.9368L48.4309 16.8616Z" fill="#03AFEF"/>
<path d="M33.9279 53.2196L33.6018 52.8871V39.6307L33.9279 39.4625L34.0075 39.1356L45.3919 32.5061L45.7403 32.5839V46.243L33.9279 53.2196Z" fill="#2F406A"/>
<path d="M21.9185 46.6686V32.486L22.2482 32.4697L33.829 39.1976L33.9276 39.4625V53.2196L21.9185 46.6686Z" fill="#2379BD"/>
<path d="M33.7308 25.509L21.9185 32.4859L33.9276 39.4625L45.7399 32.584L33.7308 25.509Z" fill="#03AFEF"/>
<path d="M64.3776 53.547L64.0512 53.2144V39.9581L64.3776 39.7899L64.4569 39.463L75.8416 32.8335L76.19 32.9113V46.5704L64.3776 53.547Z" fill="#2F406A"/>
<path d="M52.3683 46.9963V32.8136L52.6984 32.7974L64.2791 39.5252L64.3777 39.7902V53.5473L52.3683 46.9963Z" fill="#2379BD"/>
<path d="M64.1806 25.8367L52.3683 32.8136L64.3777 39.7902L76.19 32.9116L64.1806 25.8367Z" fill="#03AFEF"/>
<path d="M49.6776 62.1947L49.3515 61.8622V48.6055L49.6776 48.4376L49.7573 48.1107L61.142 41.4812L61.49 41.559V55.2178L49.6776 62.1947Z" fill="#2F406A"/>
<path d="M37.6684 55.6436V41.4606L37.9982 41.4443L49.5793 48.1725L49.6775 48.4375V62.1946L37.6684 55.6436Z" fill="#2379BD"/>
<path d="M49.4808 34.4836L37.6684 41.4606L49.6775 48.4375L61.4898 41.5589L49.4808 34.4836Z" fill="#03AFEF"/>
</g>
<defs>
<clipPath id="clip0_294_1806">
<rect width="98" height="98" fill="white" transform="translate(0 0.566895)"/>
</clipPath>
</defs>
</svg>
