<svg width="99" height="99" viewBox="0 0 99 99" fill="none" xmlns="http://www.w3.org/2000/svg">
<path fill-rule="evenodd" clip-rule="evenodd" d="M18.7618 7.86952C16.6804 8.28419 13.7384 9.87704 12.0182 11.5207C10.1862 13.2712 8.46462 16.4185 8.02062 18.8291C7.6592 20.7908 7.6592 77.3561 8.02062 79.3177C8.46462 81.7283 10.1862 84.8756 12.0182 86.6262C13.8443 88.3708 16.7121 89.8712 19.0452 90.3023C20.041 90.4863 30.5684 90.5555 50.1464 90.5064L79.7426 90.4325L81.3513 89.8205C84.5327 88.6103 87.5026 86.0748 88.9706 83.3161C90.6691 80.1239 90.6012 81.55 90.6012 49.0734C90.6012 16.6062 90.6685 18.0216 88.9749 14.8388C87.4817 12.0323 84.5821 9.55531 81.3513 8.32635L79.7426 7.71429L49.848 7.67319C33.4059 7.65064 19.4171 7.739 18.7618 7.86952ZM73.183 23.224C73.9685 23.6212 74.5847 24.1964 74.9807 24.9025L75.5828 25.9768L75.518 49.342L75.4528 72.7072L74.8091 73.6115C74.4549 74.1086 73.6707 74.7405 73.0663 75.0155C72.0226 75.4901 70.8249 75.5156 49.2621 75.5212C33.8896 75.5253 26.3132 75.435 25.8022 75.2422C24.6796 74.8181 23.335 73.3961 23.0355 72.3162C22.6789 71.0303 22.6749 27.1058 23.0312 25.861C23.346 24.762 24.4761 23.4955 25.5837 23.0002C26.2347 22.7094 30.7357 22.6388 49.1879 22.6302L71.9877 22.6197L73.183 23.224ZM38.8759 38.3547L38.051 39.05V48.9751V58.9005L38.7092 59.5596L39.3671 60.2189H49.1506H58.9338L59.6861 59.5711L60.4384 58.9231L60.5157 49.4454C60.5712 42.6235 60.5041 39.7536 60.2768 39.2039C59.6566 37.7042 59.3317 37.6594 49.0774 37.6594H39.7007L38.8759 38.3547Z" fill="black"/>
</svg>
