<svg width="82" height="83" viewBox="0 0 82 83" fill="none" xmlns="http://www.w3.org/2000/svg">
<path d="M27.9217 29.3662H27.8616C23.7703 29.1856 19.5888 30.1784 16.4 32.3443C20.04 34.811 24.9736 35.7437 29.5763 35.2022C28.3129 37.1274 27.4104 39.2333 27.0192 41.3692C30.2381 40.7675 33.3968 38.9927 35.9538 36.6161C38.5109 38.9925 41.6696 40.7675 44.8884 41.3692C44.4973 39.2332 43.5948 37.1275 42.3314 35.2022V35.1719V35.2022C46.9341 35.7437 51.8677 34.811 55.5077 32.3443C52.3189 30.1784 48.1374 29.1856 44.0461 29.3662H44.0159H44.0461C50.1232 25.9966 54.6958 19.7096 55.5077 12.7905C48.4683 13.6027 42.0607 18.3258 38.7215 24.583C38.6916 24.6132 38.6916 24.6431 38.6916 24.6733C38.6916 24.6431 38.6916 24.6132 38.7218 24.583C41.7599 17.3631 40.8273 8.39839 35.9539 2.26147C31.1106 8.36831 30.1479 17.333 33.1561 24.5228C33.1561 24.5531 33.1864 24.5531 33.1864 24.5829C33.2166 24.6132 33.2166 24.643 33.2166 24.6733C33.2166 24.643 33.2166 24.6132 33.1864 24.5829C33.1864 24.5527 33.1561 24.5527 33.1561 24.5228C29.8172 18.2957 23.4093 13.6027 16.4 12.7905C17.2122 19.7096 21.7848 25.9969 27.8616 29.3662H27.9217Z" stroke="#03434B" stroke-width="3" stroke-miterlimit="10" stroke-linecap="round" stroke-linejoin="round"/>
<path d="M9.69675 45.1538C11.1245 45.1538 12.6686 45.4213 14.0334 46.2821L14.0606 46.2557L14.1144 46.3091L28.3173 54.7466C28.8183 53.0732 29.7887 51.5557 31.2988 50.5815C31.5208 50.4478 31.7713 50.365 32.0302 50.3398L58.05 46.9005C58.1219 46.8867 58.1939 46.8777 58.2671 46.8735C66.8146 46.8735 72.5421 50.1539 77.7277 55.4725C78.0375 55.7898 78.2123 56.2133 78.2154 56.6547V81.2692C78.2196 81.9026 77.8723 82.4868 77.3115 82.7903C76.7507 83.0932 76.067 83.0662 75.5322 82.7201C70.2185 79.2928 63.4317 77.7747 58.2942 77.8298C51.955 77.8976 45.5433 80.1931 38.9699 82.8545C38.4102 83.0776 37.7738 82.996 37.2891 82.6398L4.30446 58.4552C4.22702 58.3983 4.15441 58.3353 4.08727 58.2669C2.7363 56.8771 1.89231 54.9686 1.89231 52.8926C1.89231 48.6387 5.4073 45.1538 9.69792 45.1538L9.69675 45.1538ZM9.69675 48.5931C7.28094 48.5931 5.36012 50.4975 5.36012 52.8926C5.36012 54.0394 5.82355 55.0514 6.55257 55.8214L38.5894 79.361C44.9467 76.8118 51.4159 74.463 58.2405 74.3898C63.2426 74.3364 69.3052 75.6014 74.746 78.3935V57.4075C70.1044 52.7805 65.7084 50.3129 58.2668 50.3129L33.0602 53.6454C32.0577 54.3838 31.3794 55.6614 31.3794 57.1922C31.3794 59.604 33.2834 61.4917 35.716 61.4917H54.7972C55.2618 61.4851 55.7089 61.6638 56.0398 61.9865C56.3708 62.3098 56.5565 62.7513 56.5565 63.2113C56.5565 63.672 56.3708 64.1129 56.0398 64.4362C55.7089 64.7595 55.2618 64.9376 54.7972 64.9316H35.716C31.9687 64.9316 28.9776 62.2288 28.2352 58.7241C28.1983 58.7073 28.1626 58.6893 28.1269 58.6701L12.2704 49.2116C12.2516 49.1936 12.2341 49.1762 12.2159 49.1576C11.6871 48.8127 10.6998 48.5932 9.69557 48.5932L9.69675 48.5931Z" fill="#03434B"/>
</svg>
