<svg width="99" height="99" viewBox="0 0 99 99" fill="none" xmlns="http://www.w3.org/2000/svg">
<g clip-path="url(#clip0_294_1796)">
<path d="M0.5 49.5669V0.566895H98.5V98.5669H0.5" fill="#007ACC"/>
<path d="M21.9866 49.7383V53.7318H34.7266V89.9918H43.7671V53.7318H56.5071V49.8118C56.5071 47.6068 56.5071 45.8183 56.4091 45.7693C56.4091 45.6958 48.6426 45.6713 39.2101 45.6713L22.0601 45.7448V49.7628L21.9866 49.7383ZM79.2431 45.6468C81.7421 46.2348 83.6531 47.3618 85.3681 49.1503C86.2746 50.1303 87.6221 51.8453 87.7201 52.2863C87.7201 52.4333 83.4816 55.2998 80.9091 56.8923C80.8111 56.9658 80.4191 56.5493 80.0271 55.9123C78.7531 54.0993 77.4546 53.3153 75.4211 53.1683C72.4811 52.9723 70.5211 54.5158 70.5211 57.0883C70.5211 57.8723 70.6681 58.3133 70.9621 58.9503C71.6236 60.2978 72.8486 61.1063 76.6461 62.7723C83.6531 65.7858 86.6911 67.7703 88.5286 70.6123C90.6111 73.7973 91.0766 78.7953 89.6801 82.5438C88.1121 86.6353 84.2901 89.4038 78.8266 90.3103C77.1116 90.6043 73.1916 90.5553 71.3541 90.2368C67.4341 89.5018 63.6856 87.5418 61.3826 85.0183C60.4761 84.0383 58.7366 81.4168 58.8346 81.2453L59.7656 80.6573L63.4406 78.5258L66.2091 76.9088L66.8461 77.7663C67.6546 79.0403 69.4676 80.7553 70.5211 81.3433C73.7061 82.9848 77.9691 82.7643 80.0761 80.8533C80.9826 80.0203 81.3746 79.1383 81.3746 77.9133C81.3746 76.7863 81.2031 76.2718 80.6396 75.4143C79.8556 74.3363 78.2876 73.4543 73.8776 71.4943C68.8061 69.3383 66.6501 67.9663 64.6411 65.8593C63.4896 64.5853 62.4361 62.6008 61.9461 60.9593C61.5786 59.5383 61.4561 56.0593 61.7991 54.6628C62.8526 49.7628 66.5521 46.3328 71.8441 45.3528C73.5591 45.0098 77.6016 45.1568 79.2921 45.5978L79.2431 45.6468Z" fill="white"/>
</g>
<defs>
<clipPath id="clip0_294_1796">
<rect width="98" height="98" fill="white" transform="translate(0.5 0.566895)"/>
</clipPath>
</defs>
</svg>
